<?xml version="1.0" encoding="utf-8"?>
<!-- Generator: Adobe Illustrator 19.1.0, SVG Export Plug-In . SVG Version: 6.00 Build 0)  -->
<svg version="1.1" id="Layer_1" xmlns="http://www.w3.org/2000/svg" xmlns:xlink="http://www.w3.org/1999/xlink" x="0px" y="0px"
	 viewBox="60 13 270 75" style="enable-background:new 60 13 270 75;" xml:space="preserve">
<style type="text/css">
	.st0{fill:#001E61;}
	.st1{fill:#009BDE;}
	.st2{fill:#001E61;stroke:#001E61;stroke-width:0.2;stroke-linecap:round;stroke-linejoin:round;stroke-miterlimit:10;}
</style>
<path class="st0" d="M147.6,19.7c0,0-4.2,5.4-4.8,9.1c-0.4,2.2,0.2,5.6-0.3,8.7c-0.3,2-1.6,5.5-1.6,5.5s5.2-6.1,5.9-11.8
	C147.4,25.4,147.1,23.7,147.6,19.7z"/>
<path class="st0" d="M137,42.8c0,0-10.6,14-23,13.8c-12.4-0.1-17.9-4.3-26.8-3.2c-9.6,1.3-19.2,7.7-22.3,15.7c0,0,10.1-10,23.5-9.9
	s13.2,3.4,23.8,3.2C122.8,62.1,133.7,51,137,42.8z"/>
<path class="st1" d="M134.6,58.3c0.3-1-6.3,14.4-22.5,16.3c-13.2,1.5-17.9-3.4-17.9-3.4l2.2-4.2c0,0,9.1,4.8,19,2.5
	C129.4,66.2,134.6,58.3,134.6,58.3z"/>
<path class="st2" d="M164.1,35.4c0.7,0.5,1,1.1,1,2c0,1-0.5,1.9-1.4,2.4c-0.8,0.5-1.8,0.7-3.1,0.7c-1.3,0-2.7-0.2-3.4-0.6
	c-0.4-0.2-0.5-0.3-0.5-0.4c0-0.1,0.1-0.2,0.3-0.2c0.4,0,0.4-0.1,0.5-0.6v-0.4v-6.2v-0.4c0-0.5-0.1-0.6-0.4-0.6
	c-0.3,0-0.4-0.1-0.4-0.2c0-0.2,0.2-0.3,0.8-0.5c0.9-0.3,2.1-0.5,3.2-0.5c2.3,0,3.8,0.9,3.8,2.5c0,0.7-0.3,1.2-0.9,1.7
	c-0.5,0.4-0.9,0.5-1.7,0.6C163,34.8,163.5,35,164.1,35.4z M158.7,38.4c0,0.8,0,1,0.3,1.2c0.4,0.2,1,0.4,1.8,0.4c1.8,0,2.9-1,2.9-2.7
	c0-1.5-1.1-2.4-3-2.4h-0.6c-0.4,0-0.5-0.1-0.5-0.2c0-0.1,0.1-0.2,0.5-0.2h0.5c1.7,0,2.7-0.8,2.7-2.1c0-1.3-1-2-2.6-2
	c-0.7,0-1.2,0.1-1.6,0.3c-0.3,0.2-0.3,0.2-0.3,1.2L158.7,38.4z"/>
<path class="st2" d="M188,40.5c-3.5,0-5.7-2.1-5.7-5.3c0-3.3,2.2-5.3,5.7-5.3s5.8,2.1,5.8,5.4C193.8,38.5,191.5,40.5,188,40.5z
	 M188,30.4c-2.6,0-4.3,1.9-4.3,4.8s1.7,4.8,4.3,4.8s4.4-1.9,4.4-4.9C192.4,32.3,190.6,30.4,188,30.4z"/>
<path class="st2" d="M220.1,37.1c0,1.2-0.2,1.8-0.8,2.3c-0.7,0.7-1.9,1.1-3.3,1.1c-1.4,0-2.6-0.4-3.3-1.1c-0.5-0.5-0.7-1.1-0.7-2.1
	v-5.8c0-0.9-0.1-1-0.5-1.1h-0.2c-0.3,0-0.4-0.1-0.4-0.2c0-0.2,0.1-0.2,0.4-0.2h0.1h2.4h0.1c0.3,0,0.4,0.1,0.4,0.2s-0.1,0.2-0.4,0.2
	h-0.2c-0.4,0-0.5,0.1-0.5,1.1V37c0,1.2,0.1,1.6,0.6,2.1c0.5,0.6,1.4,0.9,2.5,0.9c1.3,0,2.3-0.5,2.8-1.3c0.3-0.4,0.3-0.8,0.3-1.9
	v-5.2c0-0.9-0.1-1-0.5-1.1h-0.2c-0.3,0-0.4-0.1-0.4-0.2c0-0.2,0.1-0.2,0.4-0.2h0.1h1.8h0.1c0.3,0,0.4,0.1,0.4,0.2s-0.1,0.2-0.4,0.2
	h-0.2c-0.4,0-0.5,0.1-0.5,1.1L220.1,37.1L220.1,37.1z"/>
<path class="st2" d="M245.6,39.9l-0.1,0.2c-0.1,0.2-0.2,0.2-0.5,0.2h-6.1h-0.1c-0.3,0-0.4-0.1-0.4-0.2c0-0.2,0.1-0.2,0.4-0.2h0.2
	c0.4,0,0.5-0.2,0.5-1.1v-7.2c0-0.9-0.1-1-0.5-1.1h-0.2c-0.3,0-0.4-0.1-0.4-0.2c0-0.2,0.1-0.2,0.4-0.2h0.1h2.4h0.1
	c0.3,0,0.4,0.1,0.4,0.2s-0.1,0.2-0.4,0.2h-0.2c-0.4,0-0.5,0.1-0.5,1.1v7c0,1.2,0,1.3,1.1,1.3h1.1c1.5,0,2.1-0.2,2.6-0.9
	c0.2-0.3,0.3-0.4,0.4-0.4c0.1,0,0.2,0.1,0.2,0.2c0,0,0,0.2-0.1,0.3L245.6,39.9z"/>
<path class="st2" d="M263.7,32v-0.3c0-0.4-0.1-0.5-0.4-0.5S263,31.1,263,31s0.1-0.2,0.2-0.3c0.8-0.4,2.6-0.8,4.1-0.8
	c1.8,0,3.2,0.5,4.2,1.4c1,1,1.5,2.3,1.5,3.9c0,3.3-2.2,5.3-5.9,5.3c-1.2,0-2.5-0.2-3.3-0.4c-0.6-0.2-0.8-0.4-0.8-0.5
	s0.1-0.2,0.3-0.2c0.2,0,0.3,0,0.4-0.2c0.1-0.1,0.1-0.2,0.1-0.8L263.7,32L263.7,32z M264.9,38.4c0,1.1,0.1,1.1,0.4,1.3
	c0.4,0.2,1,0.3,1.8,0.3c1.6,0,2.8-0.6,3.6-1.7c0.6-0.9,0.8-1.9,0.8-3.1c0-3-1.7-4.8-4.3-4.8c-0.8,0-1.6,0.2-2,0.4
	c-0.2,0.2-0.3,0.3-0.3,1V38.4z"/>
<path class="st2" d="M294.7,34.2L294.7,34.2c0.4,0,0.5,0.1,0.5,0.2c0,0.1-0.1,0.2-0.5,0.2h-1.2c-0.9,0-1,0.1-1,0.8V39
	c0,0.9,0.1,0.9,1.9,0.9h1c1.2,0,1.6-0.2,2.2-0.9c0.1-0.2,0.2-0.2,0.3-0.2s0.2,0.1,0.2,0.2c0,0,0,0.1-0.1,0.2l-0.4,0.8l-0.1,0.2
	c-0.1,0.2-0.2,0.2-0.7,0.2h-6.1h-0.1c-0.3,0-0.4-0.1-0.4-0.2c0-0.2,0.1-0.2,0.4-0.2h0.2c0.4,0,0.5-0.2,0.5-1.1v-7.2
	c0-0.9-0.1-1-0.5-1.1h-0.2c-0.3,0-0.4-0.1-0.4-0.2c0-0.2,0.1-0.2,0.4-0.2h0.1h5.8c0.5,0,0.6,0,0.7,0.3l0.3,0.7
	c0.1,0.2,0.1,0.2,0.1,0.2c0,0.1-0.1,0.2-0.2,0.2s-0.2,0-0.4-0.3c-0.5-0.7-0.8-0.7-3.2-0.7c-1.2,0-1.3,0.1-1.3,1v2.8h2.2V34.2z"/>
<path class="st2" d="M323.1,39.1c0.5,0.6,0.7,0.8,1.2,0.8c0.3,0,0.4,0.1,0.4,0.2c0,0.1-0.1,0.2-0.4,0.2H323c-0.3,0-0.4-0.1-0.6-0.2
	l-4.2-4.8c-0.1-0.2-0.2-0.2-0.2-0.3c0-0.2,0.1-0.3,0.5-0.2c0.1,0,0.1,0,0.2,0c1.8,0,2.9-0.8,2.9-2.2c0-1.3-1-2.2-2.6-2.2
	c-0.7,0-1.3,0.2-1.6,0.4c-0.2,0.2-0.3,0.4-0.3,1.3v6.7c0,0.9,0.1,1,0.5,1.1h0.3c0.3,0,0.4,0.1,0.4,0.2c0,0.1-0.1,0.2-0.4,0.2h-0.1
	h-2.5h-0.1c-0.3,0-0.4-0.1-0.4-0.2c0-0.2,0.1-0.2,0.4-0.2h0.2c0.4,0,0.5-0.2,0.5-1.1v-6.7v-0.4c0-0.4-0.1-0.5-0.4-0.5h-0.1
	c-0.2,0-0.3-0.1-0.3-0.2s0.2-0.3,0.7-0.4c1.1-0.4,2.1-0.6,3.3-0.6c2.4,0,3.9,1,3.9,2.6c0,1.5-1.4,2.6-3.3,2.7L323.1,39.1z"/>
<path class="st2" d="M157.1,51.3v-0.2c0-0.3-0.1-0.4-0.3-0.4c-0.2,0-0.2-0.1-0.2-0.1c0-0.1,0-0.1,0.2-0.2c0.6-0.3,1.9-0.6,3-0.6
	c1.4,0,2.4,0.4,3.1,1.1c0.7,0.7,1.1,1.7,1.1,2.8c0,2.4-1.6,3.9-4.3,3.9c-0.9,0-1.8-0.1-2.4-0.3c-0.4-0.1-0.6-0.3-0.6-0.4
	c0-0.1,0.1-0.2,0.2-0.2c0.2,0,0.2,0,0.3-0.1s0.1-0.1,0.1-0.6v-4.7H157.1z M158.1,56.1c0,0.8,0,0.8,0.3,1c0.3,0.1,0.8,0.2,1.3,0.2
	c1.2,0,2.1-0.4,2.6-1.3c0.4-0.6,0.6-1.4,0.6-2.3c0-2.2-1.2-3.5-3.2-3.5c-0.6,0-1.2,0.1-1.4,0.3c-0.2,0.1-0.2,0.2-0.2,0.7
	C158.1,51.2,158.1,56.1,158.1,56.1z"/>
<path class="st2" d="M175.8,53L175.8,53c0.3,0,0.4,0.1,0.4,0.2c0,0.1-0.1,0.2-0.4,0.2h-0.9c-0.7,0-0.8,0-0.8,0.6v2.5
	c0,0.7,0.1,0.7,1.4,0.7h0.7c0.9,0,1.2-0.1,1.6-0.7c0.1-0.1,0.2-0.2,0.2-0.2c0.1,0,0.2,0.1,0.2,0.1s0,0.1,0,0.2l-0.3,0.6l-0.1,0.2
	c-0.1,0.1-0.2,0.1-0.5,0.1h-4.5h-0.1c-0.2,0-0.3,0-0.3-0.1s0.1-0.1,0.3-0.2h0.2c0.3,0,0.4-0.1,0.4-0.8v-5.3c0-0.7,0-0.8-0.4-0.8
	h-0.2c-0.2,0-0.3-0.1-0.3-0.2c0-0.1,0.1-0.2,0.3-0.2h0.1h4.3c0.4,0,0.4,0,0.5,0.2l0.2,0.5c0.1,0.1,0.1,0.1,0.1,0.2
	c0,0.1-0.1,0.1-0.2,0.1c-0.1,0-0.2,0-0.3-0.2c-0.4-0.5-0.6-0.5-2.3-0.5c-0.9,0-1,0.1-1,0.7v2h1.7V53z"/>
<path class="st2" d="M192.9,51.1c0-0.7,0-0.8-0.4-0.8h-0.1c-0.2,0-0.3-0.1-0.3-0.2c0-0.1,0.1-0.2,0.3-0.2h0.1h1.3h0.1
	c0.2,0,0.3,0,0.3,0.2c0,0.1,0,0.1-0.3,0.2h-0.1c-0.3,0-0.4,0.1-0.4,0.8v6.2v0.2c0,0.1-0.1,0.1-0.1,0.1h-0.2c-0.1,0-0.1,0-0.1-0.1
	c0-0.3-0.1-0.4-0.3-0.6l-0.2-0.3l-4.4-5.2v5.1c0,0.7,0,0.8,0.4,0.8h0.2c0.2,0,0.3,0,0.3,0.2c0,0.1-0.1,0.1-0.3,0.1h-0.1h-1.3H187
	c-0.2,0-0.3,0-0.3-0.1s0.1-0.1,0.3-0.2h0.2c0.3,0,0.4-0.1,0.4-0.8v-5.6c-0.3-0.3-0.4-0.4-0.6-0.5l-0.3-0.1c-0.1,0-0.2-0.1-0.2-0.1
	c0-0.1,0.1-0.1,0.2-0.1h1c0.2,0,0.3,0,0.4,0.2l4.8,5.7V51.1z"/>
<path class="st2" d="M206.5,56.4c0,0.7,0,0.8,0.4,0.8h0.2c0.2,0,0.3,0.1,0.3,0.2c0,0.1-0.1,0.1-0.3,0.1H207h-1.8H205
	c-0.2,0-0.3,0-0.3-0.1s0.1-0.1,0.3-0.2h0.2c0.2,0,0.3-0.1,0.3-0.2c0-0.1,0.1-0.2,0.1-0.6v-5.1v-0.4c0-0.6-0.1-0.6-0.9-0.6
	c-1,0-1.3,0.1-1.7,0.6l-0.1,0.2c-0.1,0.1-0.1,0.1-0.2,0.1c-0.1,0-0.2-0.1-0.2-0.1s0-0.1,0.1-0.2l0.3-0.6c0.1-0.2,0.1-0.3,0.5-0.3
	h5.4h0.2c0.2,0,0.3,0.1,0.4,0.2l0.3,0.7c0,0.1,0.1,0.1,0.1,0.2c0,0.1-0.1,0.1-0.2,0.1c-0.1,0-0.1,0-0.2-0.1c-0.5-0.7-0.8-0.8-2-0.8
	c-0.7,0-0.8,0.1-0.8,0.7v5.4H206.5z"/>
<path class="st2" d="M217.4,56.5l-0.1,0.2c-0.1,0.2-0.1,0.2-0.1,0.3s0.1,0.2,0.3,0.2h0.2c0.2,0,0.2,0.1,0.2,0.2
	c0,0.1-0.1,0.1-0.2,0.1h-1.5c-0.1,0-0.2-0.1-0.2-0.1c0-0.1,0.1-0.1,0.2-0.2h0.2c0.2,0,0.2-0.1,0.3-0.2c0-0.1,0.1-0.1,0.2-0.4
	c0-0.1,0.1-0.1,0.1-0.2c0.1-0.1,0.1-0.2,0.1-0.2l2.3-6.1c0.1-0.2,0.1-0.3,0.3-0.3c0.1,0,0.2,0.1,0.3,0.3l2.4,6.2l0.1,0.3l0.1,0.1
	c0.1,0.4,0.2,0.4,0.5,0.5h0.1c0.1,0,0.2,0.1,0.2,0.2c0,0.1-0.1,0.1-0.3,0.1h-2c-0.2,0-0.3,0-0.3-0.2c0-0.1,0-0.1,0.4-0.2
	c0.2,0,0.3-0.1,0.3-0.2c0-0.1,0-0.2-0.1-0.3l-0.1-0.3l-0.3-0.9c-0.2-0.6-0.2-0.6-0.8-0.6h-1.5c-0.6,0-0.6,0-0.8,0.6L217.4,56.5z
	 M220.6,54.4l-1.2-3.2l-1.2,3.2H220.6z"/>
<path class="st2" d="M237,57.2l-0.1,0.1c-0.1,0.1-0.2,0.2-0.4,0.2H232h-0.1c-0.2,0-0.3,0-0.3-0.1s0.1-0.1,0.3-0.2h0.2
	c0.3,0,0.4-0.1,0.4-0.8v-5.3c0-0.7,0-0.8-0.4-0.8H232c-0.2,0-0.3,0-0.3-0.1s0.1-0.2,0.3-0.2h0.1h1.8h0.1c0.2,0,0.3,0,0.3,0.2
	c0,0.1-0.1,0.1-0.3,0.1h-0.2c-0.3,0-0.4,0.1-0.4,0.8v5.2c0,0.9,0,0.9,0.8,0.9h0.8c1.1,0,1.5-0.1,1.9-0.7c0.2-0.2,0.2-0.3,0.3-0.3
	s0.2,0.1,0.2,0.1s0,0.1-0.1,0.2L237,57.2z"/>
<path class="st2" d="M260,56.1L260,56.1c0,0.4,0,0.4,0.3,0.4c0.1,0,0.2,0.1,0.2,0.1c0,0.1-0.1,0.2-0.3,0.3c-0.7,0.4-2,0.6-3,0.6
	c-1.3,0-2.4-0.4-3.1-1.1c-0.7-0.7-1-1.7-1-2.7c0-2.3,1.8-3.9,4.2-3.9c0.4,0,0.8,0,1.1,0.1l0.4,0.1c0.1,0,0.1,0,0.2,0
	c0.1,0,0.2,0,0.3-0.1s0.1-0.1,0.2-0.1c0.1,0,0.1,0,0.2,0.2l0.4,1c0,0.1,0.1,0.1,0.1,0.2c0,0.1-0.1,0.1-0.2,0.1c-0.1,0-0.2,0-0.2-0.1
	c-0.6-0.7-1.4-1-2.4-1c-1.9,0-3.1,1.5-3.1,3.6s1.2,3.4,3.1,3.4c0.6,0,1.2-0.1,1.6-0.4c0.3-0.2,0.3-0.2,0.3-0.8v-0.5v-0.2
	c0-0.4-0.1-0.5-0.5-0.5h-0.2c-0.1,0-0.2-0.1-0.2-0.2c0-0.1,0.1-0.2,0.3-0.2h1.9c0.3,0,0.3,0,0.3,0.1s-0.1,0.2-0.2,0.2
	c-0.5,0-0.6,0.1-0.6,0.6v0.8H260z"/>
<path class="st2" d="M275.4,56.6c0.4,0.5,0.5,0.6,0.9,0.6c0.2,0,0.3,0.1,0.3,0.2c0,0.1-0.1,0.1-0.3,0.1h-1c-0.2,0-0.3,0-0.4-0.2
	l-3.1-3.5c-0.1-0.1-0.1-0.2-0.1-0.2c0-0.1,0.1-0.2,0.4-0.2h0.1c1.3,0,2.1-0.6,2.1-1.6s-0.7-1.6-1.9-1.6c-0.5,0-1,0.1-1.2,0.3
	c-0.2,0.1-0.2,0.3-0.2,1v4.9c0,0.7,0.1,0.8,0.4,0.8h0.2c0.2,0,0.3,0.1,0.3,0.2c0,0.1-0.1,0.1-0.3,0.1h-0.1h-1.8h-0.1
	c-0.2,0-0.3,0-0.3-0.1s0.1-0.1,0.3-0.2h0.2c0.3,0,0.4-0.1,0.4-0.8v-4.9v-0.3c0-0.3-0.1-0.4-0.3-0.4h-0.1c-0.1,0-0.2-0.1-0.2-0.2
	c0-0.1,0.2-0.2,0.5-0.3c0.8-0.3,1.5-0.4,2.4-0.4c1.8,0,2.9,0.7,2.9,1.9c0,1.1-1,1.9-2.4,2L275.4,56.6z"/>
<path class="st2" d="M288.6,57.6c-2.5,0-4.2-1.5-4.2-3.9s1.6-3.9,4.2-3.9s4.2,1.5,4.2,3.9S291.2,57.6,288.6,57.6z M288.6,50.2
	c-1.9,0-3.1,1.4-3.1,3.6c0,2.1,1.2,3.5,3.2,3.5c1.9,0,3.2-1.4,3.2-3.6C291.8,51.6,290.5,50.2,288.6,50.2z"/>
<path class="st2" d="M308.1,55.1c0,0.9-0.1,1.3-0.6,1.7c-0.5,0.5-1.4,0.8-2.4,0.8c-1.1,0-1.9-0.3-2.4-0.8c-0.4-0.4-0.5-0.8-0.5-1.5
	v-4.2c0-0.7,0-0.8-0.4-0.8h-0.2c-0.2,0-0.3,0-0.3-0.1s0.1-0.2,0.3-0.2h0.1h1.7h0.1c0.2,0,0.3,0,0.3,0.2c0,0.1-0.1,0.1-0.3,0.1h-0.2
	c-0.3,0-0.4,0.1-0.4,0.8v4c0,0.9,0.1,1.2,0.4,1.6c0.4,0.4,1,0.7,1.8,0.7c0.9,0,1.7-0.4,2.1-0.9c0.2-0.3,0.2-0.6,0.2-1.4v-3.9
	c0-0.7,0-0.8-0.4-0.8h-0.1c-0.2,0-0.3,0-0.3-0.1s0.1-0.2,0.3-0.2h0.1h1.3h0.1c0.2,0,0.3,0,0.3,0.2c0,0.1-0.1,0.1-0.3,0.1h-0.2
	c-0.3,0-0.4,0.1-0.4,0.8v3.9H308.1z"/>
<path class="st2" d="M319.1,56.4c0,0.4,0,0.5,0.1,0.6c0,0.1,0.2,0.2,0.3,0.2h0.4c0.2,0,0.3,0.1,0.3,0.2c0,0.1-0.1,0.1-0.3,0.1h-0.1
	h-1.9h-0.1c-0.2,0-0.3,0-0.3-0.1s0.1-0.1,0.3-0.2h0.1c0.3,0,0.4-0.1,0.4-0.8v-5.1v-0.2c0-0.2-0.1-0.4-0.3-0.4h-0.1
	c-0.1,0-0.2-0.1-0.2-0.2c0-0.1,0.2-0.2,0.7-0.4c0.6-0.2,1.5-0.3,2.3-0.3c1.8,0,2.9,0.8,2.9,2.2c0,1.3-1,2.2-2.6,2.2
	c-0.7,0-1.3-0.2-1.3-0.4c0-0.1,0.1-0.2,0.2-0.2h0.1l0.3,0.1c0.2,0,0.4,0.1,0.6,0.1c1.1,0,1.8-0.7,1.8-1.8c0-1.2-0.7-1.9-2-1.9
	c-0.6,0-1.1,0.1-1.3,0.4c-0.1,0.1-0.2,0.2-0.2,0.8L319.1,56.4L319.1,56.4z"/>
<rect x="155.9" y="43.7" class="st1" width="171.1" height="0.9"/>
<g>
	<path class="st0" d="M161.1,74.1c0,0.1,0.1,0.2,0.1,0.4c0-0.1,0.1-0.2,0.1-0.4s0.1-0.2,0.2-0.3l3.2-5.8c0.1-0.1,0.1-0.2,0.2-0.2
		c0.1,0,0.1,0,0.3,0h0.9v9.4H165v-6.9c0-0.1,0-0.2,0-0.3s0-0.2,0-0.3l-3.2,5.9c-0.1,0.2-0.3,0.3-0.5,0.3h-0.2
		c-0.2,0-0.4-0.1-0.5-0.3l-3.3-5.9c0,0.1,0,0.2,0,0.3c0,0.1,0,0.2,0,0.3v6.9h-1.1v-9.4h0.9c0.1,0,0.2,0,0.3,0c0.1,0,0.1,0.1,0.2,0.2
		l3.3,5.8C161,73.8,161,73.9,161.1,74.1z"/>
	<path class="st0" d="M172.5,77.1H172c-0.1,0-0.2,0-0.3-0.1s-0.1-0.1-0.1-0.2l-0.1-0.6c-0.2,0.2-0.3,0.3-0.5,0.4
		c-0.2,0.1-0.3,0.2-0.5,0.3c-0.2,0.1-0.4,0.2-0.6,0.2c-0.2,0-0.4,0.1-0.7,0.1c-0.3,0-0.5,0-0.7-0.1c-0.2-0.1-0.4-0.2-0.6-0.3
		s-0.3-0.3-0.4-0.6c-0.1-0.2-0.1-0.5-0.1-0.8c0-0.3,0.1-0.5,0.2-0.8s0.4-0.5,0.7-0.7c0.3-0.2,0.7-0.3,1.3-0.5
		c0.5-0.1,1.2-0.2,1.9-0.2v-0.5c0-0.5-0.1-0.9-0.3-1.2c-0.2-0.3-0.6-0.4-1-0.4c-0.3,0-0.5,0-0.7,0.1s-0.4,0.2-0.5,0.2
		c-0.1,0.1-0.3,0.2-0.4,0.2c-0.1,0.1-0.2,0.1-0.3,0.1c-0.1,0-0.1,0-0.2-0.1c-0.1,0-0.1-0.1-0.1-0.2l-0.2-0.4
		c0.4-0.4,0.8-0.6,1.2-0.8c0.4-0.2,0.9-0.3,1.4-0.3c0.4,0,0.7,0.1,1,0.2s0.5,0.3,0.7,0.5s0.3,0.5,0.4,0.8c0.1,0.3,0.2,0.7,0.2,1
		V77.1z M169.5,76.4c0.2,0,0.4,0,0.6-0.1c0.2,0,0.3-0.1,0.5-0.2c0.2-0.1,0.3-0.2,0.4-0.3c0.1-0.1,0.3-0.2,0.4-0.4v-1.4
		c-0.5,0-1,0-1.4,0.1c-0.4,0.1-0.7,0.2-0.9,0.3s-0.4,0.2-0.5,0.4c-0.1,0.2-0.2,0.3-0.2,0.5c0,0.2,0,0.3,0.1,0.5
		c0.1,0.1,0.1,0.2,0.2,0.3s0.2,0.1,0.3,0.2C169.2,76.4,169.3,76.4,169.5,76.4z"/>
	<path class="st0" d="M174.3,77.1v-6.7h0.7c0.1,0,0.2,0,0.3,0.1c0,0,0.1,0.1,0.1,0.3l0.1,1c0.2-0.5,0.5-0.8,0.8-1.1
		c0.3-0.3,0.7-0.4,1.2-0.4c0.2,0,0.4,0,0.5,0.1c0.1,0,0.3,0.1,0.4,0.2l-0.2,0.9c0,0.1-0.1,0.2-0.2,0.2c-0.1,0-0.2,0-0.3-0.1
		c-0.1,0-0.3-0.1-0.5-0.1c-0.4,0-0.8,0.1-1,0.4c-0.3,0.2-0.5,0.6-0.7,1v4.3H174.3z"/>
	<path class="st0" d="M183.8,71.7c0,0-0.1,0.1-0.1,0.1s-0.1,0-0.2,0s-0.1,0-0.2-0.1c-0.1-0.1-0.2-0.1-0.3-0.2
		c-0.1-0.1-0.3-0.1-0.4-0.2c-0.2-0.1-0.4-0.1-0.6-0.1c-0.3,0-0.6,0.1-0.9,0.2c-0.3,0.1-0.5,0.3-0.6,0.5c-0.2,0.2-0.3,0.5-0.4,0.8
		s-0.1,0.7-0.1,1c0,0.4,0,0.8,0.1,1.1c0.1,0.3,0.2,0.6,0.4,0.8s0.4,0.4,0.6,0.5c0.2,0.1,0.5,0.2,0.8,0.2c0.3,0,0.5,0,0.7-0.1
		c0.2-0.1,0.3-0.1,0.5-0.2c0.1-0.1,0.2-0.2,0.3-0.2s0.2-0.1,0.2-0.1c0.1,0,0.2,0,0.2,0.1l0.3,0.4c-0.3,0.4-0.7,0.6-1.1,0.8
		c-0.4,0.2-0.9,0.2-1.4,0.2c-0.4,0-0.8-0.1-1.2-0.2c-0.4-0.2-0.7-0.4-0.9-0.7c-0.3-0.3-0.5-0.7-0.6-1.1c-0.2-0.4-0.2-0.9-0.2-1.5
		c0-0.5,0.1-1,0.2-1.4c0.1-0.4,0.3-0.8,0.6-1.1s0.6-0.5,1-0.7c0.4-0.2,0.8-0.3,1.3-0.3c0.5,0,0.9,0.1,1.2,0.2c0.4,0.2,0.7,0.4,1,0.6
		L183.8,71.7z"/>
	<path class="st0" d="M195.9,77.1h-1c-0.1,0-0.2,0-0.3-0.1c-0.1-0.1-0.1-0.1-0.2-0.2l-0.9-2.3h-4.2l-0.9,2.3c0,0.1-0.1,0.1-0.2,0.2
		c-0.1,0.1-0.2,0.1-0.3,0.1h-1l3.8-9.4h1.3L195.9,77.1z M189.7,73.6h3.5l-1.5-3.8c-0.1-0.2-0.2-0.5-0.3-0.9c0,0.2-0.1,0.3-0.1,0.5
		c0,0.2-0.1,0.3-0.1,0.4L189.7,73.6z"/>
	<path class="st0" d="M198.3,67.4v9.7h-1.2v-9.7H198.3z"/>
	<path class="st0" d="M200.4,77.1v-9.7h1.2v4c0.3-0.3,0.6-0.6,1-0.8c0.4-0.2,0.8-0.3,1.2-0.3c0.4,0,0.7,0.1,1,0.2
		c0.3,0.1,0.6,0.4,0.8,0.6s0.4,0.6,0.5,1.1c0.1,0.4,0.2,0.9,0.2,1.5c0,0.5-0.1,1-0.2,1.4s-0.3,0.8-0.6,1.1c-0.2,0.3-0.6,0.6-0.9,0.7
		c-0.4,0.2-0.8,0.3-1.2,0.3c-0.4,0-0.8-0.1-1.1-0.3s-0.6-0.4-0.8-0.7l-0.1,0.6c0,0.2-0.1,0.3-0.3,0.3H200.4z M203.3,71.3
		c-0.4,0-0.7,0.1-1,0.3c-0.3,0.2-0.6,0.4-0.8,0.7v3.2c0.2,0.3,0.4,0.5,0.7,0.6c0.3,0.1,0.5,0.2,0.9,0.2c0.6,0,1.1-0.2,1.4-0.7
		c0.3-0.4,0.5-1.1,0.5-1.9c0-0.4,0-0.8-0.1-1.1c-0.1-0.3-0.2-0.6-0.3-0.8c-0.1-0.2-0.3-0.3-0.5-0.4
		C203.9,71.3,203.6,71.3,203.3,71.3z"/>
	<path class="st0" d="M210.3,70.4c0.4,0,0.8,0.1,1.1,0.2s0.6,0.3,0.9,0.6s0.4,0.6,0.6,0.9c0.1,0.4,0.2,0.8,0.2,1.3
		c0,0.2,0,0.3-0.1,0.4c0,0.1-0.1,0.1-0.2,0.1h-4.4c0,0.4,0.1,0.8,0.2,1.1s0.2,0.6,0.4,0.8s0.4,0.4,0.7,0.5c0.3,0.1,0.5,0.2,0.9,0.2
		c0.3,0,0.5,0,0.8-0.1c0.2-0.1,0.4-0.1,0.6-0.2s0.3-0.2,0.4-0.2s0.2-0.1,0.3-0.1c0.1,0,0.2,0,0.2,0.1l0.3,0.4
		c-0.1,0.2-0.3,0.3-0.5,0.5c-0.2,0.1-0.4,0.2-0.6,0.3c-0.2,0.1-0.5,0.1-0.7,0.2c-0.2,0-0.5,0.1-0.7,0.1c-0.5,0-0.9-0.1-1.3-0.2
		c-0.4-0.2-0.7-0.4-1-0.7c-0.3-0.3-0.5-0.7-0.7-1.1s-0.2-1-0.2-1.5c0-0.5,0.1-0.9,0.2-1.3c0.1-0.4,0.3-0.8,0.6-1.1
		c0.3-0.3,0.6-0.5,1-0.7C209.4,70.4,209.9,70.4,210.3,70.4z M210.4,71.2c-0.6,0-1,0.2-1.3,0.5c-0.3,0.3-0.5,0.8-0.6,1.4h3.6
		c0-0.3,0-0.5-0.1-0.7c-0.1-0.2-0.2-0.4-0.3-0.6c-0.1-0.2-0.3-0.3-0.5-0.4S210.6,71.2,210.4,71.2z"/>
	<path class="st0" d="M214.6,77.1v-6.7h0.7c0.1,0,0.2,0,0.3,0.1c0,0,0.1,0.1,0.1,0.3l0.1,1c0.2-0.5,0.5-0.8,0.8-1.1
		c0.3-0.3,0.7-0.4,1.2-0.4c0.2,0,0.4,0,0.5,0.1c0.1,0,0.3,0.1,0.4,0.2l-0.2,0.9c0,0.1-0.1,0.2-0.2,0.2c-0.1,0-0.2,0-0.3-0.1
		c-0.1,0-0.3-0.1-0.5-0.1c-0.4,0-0.8,0.1-1,0.4c-0.3,0.2-0.5,0.6-0.7,1v4.3H214.6z"/>
	<path class="st0" d="M217.6,76.3c0-0.1,0-0.2,0.1-0.3s0.1-0.2,0.2-0.2c0.1-0.1,0.2-0.1,0.2-0.2c0.1,0,0.2-0.1,0.3-0.1
		c0.1,0,0.2,0,0.4,0.1c0.1,0,0.2,0.1,0.3,0.2c0.1,0.1,0.1,0.2,0.2,0.3c0,0.1,0.1,0.2,0.1,0.4c0,0.2,0,0.4-0.1,0.6
		c-0.1,0.2-0.1,0.4-0.2,0.6s-0.2,0.4-0.4,0.6c-0.2,0.2-0.3,0.4-0.5,0.5l-0.2-0.2c-0.1-0.1-0.1-0.1-0.1-0.2c0-0.1,0-0.1,0.1-0.2
		c0,0,0.1-0.1,0.2-0.2c0.1-0.1,0.1-0.2,0.2-0.3c0.1-0.1,0.1-0.2,0.2-0.3c0.1-0.1,0.1-0.3,0.1-0.4h-0.1c-0.1,0-0.2,0-0.3-0.1
		c-0.1,0-0.2-0.1-0.2-0.2s-0.1-0.2-0.2-0.3C217.6,76.6,217.6,76.5,217.6,76.3z"/>
	<path class="st0" d="M229.7,73.4c0,0.6-0.1,1.1-0.3,1.5s-0.4,0.8-0.7,1.2c-0.3,0.3-0.7,0.6-1.2,0.8s-0.9,0.3-1.5,0.3h-2.8v-7.4h2.8
		c0.5,0,1,0.1,1.5,0.3c0.4,0.2,0.8,0.4,1.2,0.8s0.6,0.7,0.7,1.2S229.7,72.9,229.7,73.4z M228.6,73.4c0-0.5-0.1-0.9-0.2-1.2
		c-0.1-0.4-0.3-0.7-0.5-0.9c-0.2-0.2-0.5-0.4-0.8-0.6c-0.3-0.1-0.7-0.2-1.1-0.2h-1.8v5.8h1.8c0.4,0,0.8-0.1,1.1-0.2
		c0.3-0.1,0.6-0.3,0.8-0.6c0.2-0.2,0.4-0.5,0.5-0.9C228.6,74.3,228.6,73.9,228.6,73.4z"/>
	<path class="st0" d="M237.3,73.4c0,0.6-0.1,1.1-0.3,1.5s-0.4,0.8-0.7,1.2c-0.3,0.3-0.7,0.6-1.2,0.8s-0.9,0.3-1.5,0.3h-2.8v-7.4h2.8
		c0.5,0,1,0.1,1.5,0.3c0.4,0.2,0.8,0.4,1.2,0.8s0.6,0.7,0.7,1.2S237.3,72.9,237.3,73.4z M236.2,73.4c0-0.5-0.1-0.9-0.2-1.2
		c-0.1-0.4-0.3-0.7-0.5-0.9c-0.2-0.2-0.5-0.4-0.8-0.6c-0.3-0.1-0.7-0.2-1.1-0.2h-1.8v5.8h1.8c0.4,0,0.8-0.1,1.1-0.2
		c0.3-0.1,0.6-0.3,0.8-0.6c0.2-0.2,0.4-0.5,0.5-0.9C236.2,74.3,236.2,73.9,236.2,73.4z"/>
	<path class="st0" d="M242.4,70.9c0,0.1-0.1,0.1-0.1,0.1c0,0-0.1,0-0.1,0c-0.1,0-0.1,0-0.2-0.1s-0.2-0.1-0.3-0.2
		c-0.1-0.1-0.3-0.1-0.4-0.2c-0.2-0.1-0.4-0.1-0.6-0.1c-0.2,0-0.4,0-0.6,0.1c-0.2,0.1-0.3,0.1-0.4,0.2c-0.1,0.1-0.2,0.2-0.3,0.4
		c-0.1,0.1-0.1,0.3-0.1,0.5c0,0.2,0.1,0.4,0.2,0.5c0.1,0.1,0.2,0.3,0.4,0.3c0.2,0.1,0.4,0.2,0.6,0.3c0.2,0.1,0.4,0.1,0.7,0.2
		c0.2,0.1,0.4,0.2,0.7,0.3c0.2,0.1,0.4,0.2,0.6,0.4c0.2,0.1,0.3,0.3,0.4,0.5c0.1,0.2,0.2,0.5,0.2,0.8c0,0.3-0.1,0.6-0.2,0.9
		c-0.1,0.3-0.3,0.5-0.5,0.7c-0.2,0.2-0.5,0.4-0.8,0.5c-0.3,0.1-0.7,0.2-1.1,0.2c-0.5,0-0.9-0.1-1.3-0.3s-0.7-0.4-1-0.7l0.3-0.5
		c0,0,0.1-0.1,0.1-0.1c0,0,0.1,0,0.1,0c0.1,0,0.2,0,0.2,0.1c0.1,0.1,0.2,0.2,0.3,0.3c0.1,0.1,0.3,0.2,0.5,0.3
		c0.2,0.1,0.4,0.1,0.7,0.1c0.2,0,0.5,0,0.6-0.1s0.3-0.2,0.5-0.3c0.1-0.1,0.2-0.3,0.3-0.4c0.1-0.2,0.1-0.4,0.1-0.6
		c0-0.2-0.1-0.4-0.2-0.6c-0.1-0.1-0.2-0.3-0.4-0.4s-0.4-0.2-0.6-0.2c-0.2-0.1-0.4-0.1-0.7-0.2c-0.2-0.1-0.4-0.2-0.7-0.2
		c-0.2-0.1-0.4-0.2-0.6-0.4c-0.2-0.1-0.3-0.3-0.4-0.6s-0.2-0.5-0.2-0.8c0-0.3,0.1-0.5,0.2-0.8s0.2-0.5,0.4-0.7
		c0.2-0.2,0.4-0.3,0.7-0.5c0.3-0.1,0.6-0.2,1-0.2c0.4,0,0.8,0.1,1.1,0.2c0.3,0.1,0.6,0.3,0.9,0.6L242.4,70.9z"/>
	<path class="st1" d="M246.6,68.2h0.7v9.7h-0.7V68.2z"/>
	<path class="st0" d="M255,76.4c0.2,0,0.4,0,0.6,0c0.2,0,0.3,0,0.5-0.1c0.1,0,0.3-0.1,0.4-0.1c0.1-0.1,0.3-0.1,0.4-0.2v-1.6h-1.2
		c-0.1,0-0.1,0-0.2-0.1c0,0-0.1-0.1-0.1-0.1v-0.6h2.3v2.8c-0.2,0.1-0.4,0.3-0.6,0.4c-0.2,0.1-0.4,0.2-0.6,0.3
		c-0.2,0.1-0.5,0.1-0.7,0.1c-0.3,0-0.5,0-0.9,0c-0.5,0-1-0.1-1.5-0.3c-0.4-0.2-0.8-0.4-1.2-0.8c-0.3-0.3-0.6-0.7-0.8-1.2
		c-0.2-0.5-0.3-1-0.3-1.5c0-0.6,0.1-1.1,0.3-1.5s0.4-0.9,0.8-1.2c0.3-0.3,0.7-0.6,1.2-0.8c0.5-0.2,1-0.3,1.6-0.3
		c0.3,0,0.6,0,0.8,0.1c0.3,0,0.5,0.1,0.7,0.2c0.2,0.1,0.4,0.2,0.6,0.3c0.2,0.1,0.4,0.2,0.5,0.4l-0.3,0.5c-0.1,0.1-0.1,0.1-0.2,0.1
		c-0.1,0-0.1,0-0.2-0.1c-0.1,0-0.2-0.1-0.3-0.2c-0.1-0.1-0.2-0.1-0.4-0.2c-0.2-0.1-0.3-0.1-0.5-0.2c-0.2,0-0.5-0.1-0.7-0.1
		c-0.4,0-0.8,0.1-1.1,0.2c-0.3,0.1-0.6,0.3-0.9,0.6s-0.4,0.6-0.5,0.9c-0.1,0.4-0.2,0.8-0.2,1.2c0,0.5,0.1,0.9,0.2,1.3
		s0.3,0.7,0.6,0.9c0.2,0.3,0.5,0.5,0.9,0.6C254.3,76.3,254.6,76.4,255,76.4z"/>
	<path class="st0" d="M261.3,71.8c0.3,0,0.6,0.1,0.9,0.2c0.3,0.1,0.5,0.3,0.7,0.5c0.2,0.2,0.3,0.4,0.5,0.7c0.1,0.3,0.2,0.6,0.2,1
		c0,0.1,0,0.2,0,0.3c0,0-0.1,0.1-0.2,0.1h-3.5c0,0.3,0.1,0.6,0.1,0.9c0.1,0.2,0.2,0.5,0.3,0.6c0.1,0.2,0.3,0.3,0.5,0.4
		s0.4,0.1,0.7,0.1c0.2,0,0.4,0,0.6-0.1c0.2-0.1,0.3-0.1,0.4-0.2c0.1-0.1,0.2-0.1,0.3-0.2s0.2-0.1,0.2-0.1c0.1,0,0.1,0,0.2,0.1
		l0.3,0.3c-0.1,0.1-0.2,0.3-0.4,0.4c-0.2,0.1-0.3,0.2-0.5,0.3c-0.2,0.1-0.4,0.1-0.6,0.1c-0.2,0-0.4,0-0.6,0c-0.4,0-0.7-0.1-1-0.2
		c-0.3-0.1-0.6-0.3-0.8-0.5s-0.4-0.5-0.5-0.9c-0.1-0.3-0.2-0.8-0.2-1.2c0-0.4,0.1-0.7,0.2-1c0.1-0.3,0.3-0.6,0.5-0.8
		c0.2-0.2,0.5-0.4,0.8-0.5C260.5,71.9,260.9,71.8,261.3,71.8z M261.3,72.5c-0.4,0-0.8,0.1-1.1,0.4c-0.3,0.3-0.4,0.6-0.5,1.1h2.9
		c0-0.2,0-0.4-0.1-0.6c-0.1-0.2-0.1-0.3-0.3-0.5c-0.1-0.1-0.3-0.2-0.4-0.3C261.7,72.5,261.5,72.5,261.3,72.5z"/>
	<path class="st0" d="M264.6,77.1v-5.2h0.5c0.1,0,0.2,0.1,0.2,0.2l0.1,0.6c0.2-0.3,0.5-0.5,0.8-0.6c0.3-0.2,0.6-0.2,1-0.2
		c0.3,0,0.5,0,0.8,0.1c0.2,0.1,0.4,0.2,0.5,0.4c0.1,0.2,0.3,0.4,0.3,0.6s0.1,0.5,0.1,0.8v3.3h-0.9v-3.3c0-0.4-0.1-0.7-0.3-0.9
		s-0.5-0.3-0.8-0.3c-0.3,0-0.5,0.1-0.8,0.2c-0.2,0.1-0.5,0.3-0.7,0.5v3.9H264.6z"/>
	<path class="st0" d="M272.5,71.8c0.3,0,0.6,0.1,0.9,0.2c0.3,0.1,0.5,0.3,0.7,0.5c0.2,0.2,0.3,0.4,0.5,0.7c0.1,0.3,0.2,0.6,0.2,1
		c0,0.1,0,0.2,0,0.3c0,0-0.1,0.1-0.2,0.1h-3.5c0,0.3,0.1,0.6,0.1,0.9c0.1,0.2,0.2,0.5,0.3,0.6c0.1,0.2,0.3,0.3,0.5,0.4
		s0.4,0.1,0.7,0.1c0.2,0,0.4,0,0.6-0.1c0.2-0.1,0.3-0.1,0.4-0.2c0.1-0.1,0.2-0.1,0.3-0.2s0.2-0.1,0.2-0.1c0.1,0,0.1,0,0.2,0.1
		l0.3,0.3c-0.1,0.1-0.2,0.3-0.4,0.4c-0.2,0.1-0.3,0.2-0.5,0.3c-0.2,0.1-0.4,0.1-0.6,0.1c-0.2,0-0.4,0-0.6,0c-0.4,0-0.7-0.1-1-0.2
		c-0.3-0.1-0.6-0.3-0.8-0.5s-0.4-0.5-0.5-0.9c-0.1-0.3-0.2-0.8-0.2-1.2c0-0.4,0.1-0.7,0.2-1c0.1-0.3,0.3-0.6,0.5-0.8
		c0.2-0.2,0.5-0.4,0.8-0.5C271.7,71.9,272.1,71.8,272.5,71.8z M272.5,72.5c-0.4,0-0.8,0.1-1.1,0.4c-0.3,0.3-0.4,0.6-0.5,1.1h2.9
		c0-0.2,0-0.4-0.1-0.6c-0.1-0.2-0.1-0.3-0.3-0.5c-0.1-0.1-0.3-0.2-0.4-0.3C272.9,72.5,272.7,72.5,272.5,72.5z"/>
	<path class="st0" d="M275.8,77.1v-5.2h0.5c0.1,0,0.2,0,0.2,0.1s0.1,0.1,0.1,0.2l0.1,0.8c0.2-0.4,0.4-0.7,0.7-0.9
		c0.3-0.2,0.6-0.3,0.9-0.3c0.1,0,0.3,0,0.4,0c0.1,0,0.2,0.1,0.3,0.1l-0.1,0.7c0,0.1-0.1,0.1-0.2,0.1c0,0-0.1,0-0.2,0s-0.2,0-0.4,0
		c-0.3,0-0.6,0.1-0.8,0.3s-0.4,0.5-0.5,0.8v3.3H275.8z"/>
	<path class="st0" d="M283.5,77.1h-0.4c-0.1,0-0.2,0-0.2,0c-0.1,0-0.1-0.1-0.1-0.2l-0.1-0.5c-0.1,0.1-0.3,0.2-0.4,0.3
		c-0.1,0.1-0.3,0.2-0.4,0.2c-0.1,0.1-0.3,0.1-0.5,0.2s-0.3,0.1-0.5,0.1c-0.2,0-0.4,0-0.6-0.1c-0.2-0.1-0.3-0.1-0.5-0.3
		c-0.1-0.1-0.2-0.3-0.3-0.4c-0.1-0.2-0.1-0.4-0.1-0.6c0-0.2,0.1-0.4,0.2-0.6s0.3-0.4,0.6-0.5c0.3-0.1,0.6-0.3,1-0.4
		c0.4-0.1,0.9-0.1,1.5-0.1v-0.4c0-0.4-0.1-0.7-0.3-0.9c-0.2-0.2-0.4-0.3-0.8-0.3c-0.2,0-0.4,0-0.6,0.1c-0.2,0.1-0.3,0.1-0.4,0.2
		c-0.1,0.1-0.2,0.1-0.3,0.2c-0.1,0.1-0.2,0.1-0.2,0.1c-0.1,0-0.1,0-0.2,0c0,0-0.1-0.1-0.1-0.1l-0.2-0.3c0.3-0.3,0.6-0.5,0.9-0.6
		c0.3-0.1,0.7-0.2,1.1-0.2c0.3,0,0.6,0,0.8,0.1c0.2,0.1,0.4,0.2,0.6,0.4c0.2,0.2,0.3,0.4,0.4,0.6c0.1,0.2,0.1,0.5,0.1,0.8V77.1z
		 M281.1,76.6c0.2,0,0.3,0,0.4,0c0.1,0,0.3-0.1,0.4-0.1s0.2-0.1,0.3-0.2c0.1-0.1,0.2-0.2,0.3-0.3v-1.1c-0.4,0-0.8,0-1.1,0.1
		c-0.3,0.1-0.5,0.1-0.7,0.2s-0.3,0.2-0.4,0.3c-0.1,0.1-0.1,0.2-0.1,0.4c0,0.1,0,0.3,0.1,0.4s0.1,0.2,0.2,0.2s0.2,0.1,0.3,0.1
		C280.9,76.6,281,76.6,281.1,76.6z"/>
	<path class="st0" d="M285.9,69.5v7.6H285v-7.6H285.9z"/>
	<path class="st0" d="M296.1,73.4c0,0.6-0.1,1.1-0.3,1.5s-0.4,0.8-0.7,1.2c-0.3,0.3-0.7,0.6-1.2,0.8s-0.9,0.3-1.5,0.3h-2.8v-7.4h2.8
		c0.5,0,1,0.1,1.5,0.3c0.4,0.2,0.8,0.4,1.2,0.8s0.6,0.7,0.7,1.2S296.1,72.9,296.1,73.4z M295.1,73.4c0-0.5-0.1-0.9-0.2-1.2
		c-0.1-0.4-0.3-0.7-0.5-0.9c-0.2-0.2-0.5-0.4-0.8-0.6c-0.3-0.1-0.7-0.2-1.1-0.2h-1.8v5.8h1.8c0.4,0,0.8-0.1,1.1-0.2
		c0.3-0.1,0.6-0.3,0.8-0.6c0.2-0.2,0.4-0.5,0.5-0.9C295,74.3,295.1,73.9,295.1,73.4z"/>
	<path class="st0" d="M299.4,71.8c0.3,0,0.6,0.1,0.9,0.2c0.3,0.1,0.5,0.3,0.7,0.5c0.2,0.2,0.3,0.4,0.5,0.7c0.1,0.3,0.2,0.6,0.2,1
		c0,0.1,0,0.2,0,0.3c0,0-0.1,0.1-0.2,0.1h-3.5c0,0.3,0.1,0.6,0.1,0.9c0.1,0.2,0.2,0.5,0.3,0.6c0.1,0.2,0.3,0.3,0.5,0.4
		s0.4,0.1,0.7,0.1c0.2,0,0.4,0,0.6-0.1c0.2-0.1,0.3-0.1,0.4-0.2c0.1-0.1,0.2-0.1,0.3-0.2s0.2-0.1,0.2-0.1c0.1,0,0.1,0,0.2,0.1
		l0.3,0.3c-0.1,0.1-0.2,0.3-0.4,0.4c-0.2,0.1-0.3,0.2-0.5,0.3c-0.2,0.1-0.4,0.1-0.6,0.1c-0.2,0-0.4,0-0.6,0c-0.4,0-0.7-0.1-1-0.2
		c-0.3-0.1-0.6-0.3-0.8-0.5s-0.4-0.5-0.5-0.9c-0.1-0.3-0.2-0.8-0.2-1.2c0-0.4,0.1-0.7,0.2-1c0.1-0.3,0.3-0.6,0.5-0.8
		c0.2-0.2,0.5-0.4,0.8-0.5C298.7,71.9,299,71.8,299.4,71.8z M299.4,72.5c-0.4,0-0.8,0.1-1.1,0.4c-0.3,0.3-0.4,0.6-0.5,1.1h2.9
		c0-0.2,0-0.4-0.1-0.6c-0.1-0.2-0.1-0.3-0.3-0.5c-0.1-0.1-0.3-0.2-0.4-0.3C299.8,72.5,299.7,72.5,299.4,72.5z"/>
	<path class="st0" d="M302.8,77.1v-5.2h0.5c0.1,0,0.2,0.1,0.2,0.2l0.1,0.6c0.2-0.3,0.5-0.5,0.8-0.6c0.3-0.2,0.6-0.2,1-0.2
		c0.3,0,0.5,0,0.8,0.1c0.2,0.1,0.4,0.2,0.5,0.4c0.1,0.2,0.3,0.4,0.3,0.6s0.1,0.5,0.1,0.8v3.3h-0.9v-3.3c0-0.4-0.1-0.7-0.3-0.9
		s-0.5-0.3-0.8-0.3c-0.3,0-0.5,0.1-0.8,0.2c-0.2,0.1-0.5,0.3-0.7,0.5v3.9H302.8z"/>
	<path class="st0" d="M310.1,77.2c-0.4,0-0.7-0.1-1-0.3c-0.2-0.2-0.3-0.6-0.3-1v-3.2h-0.6c-0.1,0-0.1,0-0.1,0c0,0-0.1-0.1-0.1-0.2
		v-0.4l0.9-0.1l0.2-1.6c0-0.1,0-0.1,0.1-0.1c0,0,0.1,0,0.1,0h0.5V72h1.5v0.7h-1.5v3.2c0,0.2,0.1,0.4,0.2,0.5s0.2,0.2,0.4,0.2
		c0.1,0,0.2,0,0.3,0c0.1,0,0.1-0.1,0.2-0.1s0.1-0.1,0.1-0.1c0,0,0.1,0,0.1,0c0,0,0.1,0,0.1,0.1l0.3,0.4c-0.2,0.1-0.4,0.3-0.6,0.3
		S310.4,77.2,310.1,77.2z"/>
	<path class="st0" d="M313.6,70.3c0,0.1,0,0.2-0.1,0.3c0,0.1-0.1,0.1-0.1,0.2s-0.1,0.1-0.2,0.1s-0.2,0.1-0.3,0.1s-0.2,0-0.3-0.1
		c-0.1,0-0.1-0.1-0.2-0.1c-0.1-0.1-0.1-0.1-0.1-0.2c0-0.1-0.1-0.2-0.1-0.3c0-0.1,0-0.2,0.1-0.3c0-0.1,0.1-0.2,0.1-0.2
		c0.1-0.1,0.1-0.1,0.2-0.1c0.1,0,0.2-0.1,0.3-0.1s0.2,0,0.3,0.1c0.1,0,0.1,0.1,0.2,0.1c0.1,0.1,0.1,0.1,0.1,0.2
		C313.6,70.1,313.6,70.2,313.6,70.3z M313.4,71.9v5.2h-0.9v-5.2H313.4z"/>
	<path class="st0" d="M318.1,72.8c0,0.1-0.1,0.1-0.2,0.1c-0.1,0-0.1,0-0.2-0.1s-0.1-0.1-0.2-0.1c-0.1,0-0.2-0.1-0.3-0.1
		c-0.1,0-0.3-0.1-0.5-0.1c-0.2,0-0.3,0-0.4,0.1c-0.1,0-0.2,0.1-0.3,0.2c-0.1,0.1-0.2,0.2-0.2,0.2c0,0.1-0.1,0.2-0.1,0.3
		c0,0.1,0,0.2,0.1,0.3c0.1,0.1,0.2,0.2,0.3,0.2s0.3,0.1,0.4,0.2c0.2,0,0.3,0.1,0.5,0.2c0.2,0.1,0.3,0.1,0.5,0.2
		c0.2,0.1,0.3,0.2,0.4,0.3s0.2,0.2,0.3,0.4c0.1,0.2,0.1,0.3,0.1,0.5c0,0.2,0,0.5-0.1,0.7c-0.1,0.2-0.2,0.4-0.4,0.5s-0.4,0.3-0.6,0.4
		c-0.2,0.1-0.5,0.1-0.8,0.1c-0.4,0-0.7-0.1-1-0.2c-0.3-0.1-0.5-0.3-0.8-0.5l0.2-0.4c0,0,0.1-0.1,0.1-0.1c0,0,0.1,0,0.1,0
		c0.1,0,0.1,0,0.2,0.1c0.1,0,0.2,0.1,0.3,0.2c0.1,0.1,0.2,0.1,0.4,0.2c0.1,0,0.3,0.1,0.5,0.1c0.2,0,0.3,0,0.5-0.1s0.2-0.1,0.3-0.2
		c0.1-0.1,0.2-0.2,0.2-0.3s0.1-0.2,0.1-0.3c0-0.1,0-0.3-0.1-0.4c-0.1-0.1-0.2-0.2-0.3-0.2s-0.3-0.1-0.4-0.2c-0.2,0-0.3-0.1-0.5-0.2
		c-0.2-0.1-0.3-0.1-0.5-0.2c-0.2-0.1-0.3-0.2-0.4-0.3c-0.1-0.1-0.2-0.2-0.3-0.4c-0.1-0.2-0.1-0.3-0.1-0.6c0-0.2,0-0.4,0.1-0.6
		c0.1-0.2,0.2-0.3,0.4-0.5s0.4-0.3,0.6-0.3s0.5-0.1,0.8-0.1c0.3,0,0.7,0.1,0.9,0.2c0.3,0.1,0.5,0.3,0.7,0.4L318.1,72.8z"/>
	<path class="st0" d="M321.1,77.2c-0.4,0-0.7-0.1-1-0.3c-0.2-0.2-0.3-0.6-0.3-1v-3.2h-0.6c-0.1,0-0.1,0-0.1,0c0,0-0.1-0.1-0.1-0.2
		v-0.4l0.9-0.1l0.2-1.6c0-0.1,0-0.1,0.1-0.1c0,0,0.1,0,0.1,0h0.5V72h1.5v0.7h-1.5v3.2c0,0.2,0.1,0.4,0.2,0.5s0.2,0.2,0.4,0.2
		c0.1,0,0.2,0,0.3,0c0.1,0,0.1-0.1,0.2-0.1s0.1-0.1,0.1-0.1c0,0,0.1,0,0.1,0c0,0,0.1,0,0.1,0.1l0.3,0.4c-0.2,0.1-0.4,0.3-0.6,0.3
		S321.4,77.2,321.1,77.2z"/>
</g>
</svg>
