<?xml version="1.0" encoding="utf-8"?>
<!-- Generator: Adobe Illustrator 19.1.0, SVG Export Plug-In . SVG Version: 6.00 Build 0)  -->
<svg version="1.1" id="Layer_1" xmlns="http://www.w3.org/2000/svg" xmlns:xlink="http://www.w3.org/1999/xlink" x="0px" y="0px"
	 viewBox="0 0 270 75" style="enable-background:new 0 0 270 75;" xml:space="preserve">
<style type="text/css">
	.st0{fill:#001E61;}
	.st1{fill:#009BDE;}
</style>
<path class="st0" d="M87.6,6.7c0,0-4.2,5.4-4.8,9.1c-0.4,2.2,0.2,5.6-0.3,8.7c-0.3,2-1.6,5.5-1.6,5.5s5.2-6.1,5.9-11.8
	C87.4,12.4,87.1,10.7,87.6,6.7z"/>
<path class="st0" d="M77,29.8c0,0-10.6,14-23,13.8c-12.4-0.1-17.9-4.3-26.8-3.2C17.6,41.7,8,48.1,4.9,56.1c0,0,10.1-10,23.5-9.9
	c13.4,0.1,13.2,3.4,23.8,3.2C62.8,49.1,73.7,38,77,29.8z"/>
<path class="st1" d="M74.6,45.3c0.3-1-6.3,14.4-22.5,16.3c-13.2,1.5-17.9-3.4-17.9-3.4l2.2-4.2c0,0,9.1,4.8,19,2.5
	C69.4,53.2,74.6,45.3,74.6,45.3z"/>
<path class="st0" d="M104.1,31.4c0.7,0.5,1,1.1,1,2c0,1-0.5,1.9-1.4,2.4c-0.8,0.5-1.8,0.7-3.1,0.7c-1.3,0-2.7-0.2-3.4-0.6
	c-0.4-0.2-0.5-0.3-0.5-0.4c0-0.1,0.1-0.2,0.3-0.2c0.4,0,0.4-0.1,0.5-0.6l0-0.4l0-6.2l0-0.4c0-0.5-0.1-0.6-0.4-0.6
	c-0.3,0-0.4-0.1-0.4-0.2c0-0.2,0.2-0.3,0.8-0.5c0.9-0.3,2.1-0.5,3.2-0.5c2.3,0,3.8,0.9,3.8,2.5c0,0.7-0.3,1.2-0.9,1.7
	c-0.5,0.4-0.9,0.5-1.7,0.6C103,30.8,103.5,31,104.1,31.4z M98.7,34.4c0,0.8,0,1,0.3,1.2c0.4,0.2,1,0.4,1.8,0.4c1.8,0,2.9-1,2.9-2.7
	c0-1.5-1.1-2.4-3-2.4h-0.6c-0.4,0-0.5-0.1-0.5-0.2s0.1-0.2,0.5-0.2h0.5c1.7,0,2.7-0.8,2.7-2.1c0-1.3-1-2-2.6-2
	c-0.7,0-1.2,0.1-1.6,0.3c-0.3,0.2-0.3,0.2-0.3,1.2L98.7,34.4z"/>
<path class="st0" d="M128,36.5c-3.5,0-5.7-2.1-5.7-5.3c0-3.3,2.2-5.3,5.7-5.3c3.5,0,5.8,2.1,5.8,5.4C133.8,34.5,131.5,36.5,128,36.5
	z M128,26.4c-2.6,0-4.3,1.9-4.3,4.8c0,2.9,1.7,4.8,4.3,4.8c2.6,0,4.4-1.9,4.4-4.9C132.4,28.3,130.6,26.4,128,26.4z"/>
<path class="st0" d="M160.1,33.1c0,1.2-0.2,1.8-0.8,2.3c-0.7,0.7-1.9,1.1-3.3,1.1c-1.4,0-2.6-0.4-3.3-1.1c-0.5-0.5-0.7-1.1-0.7-2.1
	v-5.8c0-0.9-0.1-1-0.5-1.1l-0.2,0c-0.3,0-0.4-0.1-0.4-0.2c0-0.2,0.1-0.2,0.4-0.2h0.1h2.4h0.1c0.3,0,0.4,0.1,0.4,0.2
	c0,0.1-0.1,0.2-0.4,0.2l-0.2,0c-0.4,0-0.5,0.1-0.5,1.1V33c0,1.2,0.1,1.6,0.6,2.1c0.5,0.6,1.4,0.9,2.5,0.9c1.3,0,2.3-0.5,2.8-1.3
	c0.3-0.4,0.3-0.8,0.3-1.9v-5.2c0-0.9-0.1-1-0.5-1.1l-0.2,0c-0.3,0-0.4-0.1-0.4-0.2c0-0.2,0.1-0.2,0.4-0.2h0.1h1.8h0.1
	c0.3,0,0.4,0.1,0.4,0.2c0,0.1-0.1,0.2-0.4,0.2l-0.2,0c-0.4,0-0.5,0.1-0.5,1.1V33.1z"/>
<path class="st0" d="M185.6,35.9l-0.1,0.2c-0.1,0.2-0.2,0.2-0.5,0.2h-6.1h-0.1c-0.3,0-0.4-0.1-0.4-0.2c0-0.2,0.1-0.2,0.4-0.2l0.2,0
	c0.4,0,0.5-0.2,0.5-1.1v-7.2c0-0.9-0.1-1-0.5-1.1l-0.2,0c-0.3,0-0.4-0.1-0.4-0.2c0-0.2,0.1-0.2,0.4-0.2h0.1h2.4h0.1
	c0.3,0,0.4,0.1,0.4,0.2c0,0.1-0.1,0.2-0.4,0.2l-0.2,0c-0.4,0-0.5,0.1-0.5,1.1v7c0,1.2,0,1.3,1.1,1.3l1.1,0c1.5,0,2.1-0.2,2.6-0.9
	c0.2-0.3,0.3-0.4,0.4-0.4c0.1,0,0.2,0.1,0.2,0.2c0,0,0,0.2-0.1,0.3L185.6,35.9z"/>
<path class="st0" d="M203.7,28v-0.3c0-0.4-0.1-0.5-0.4-0.5c-0.3,0-0.3-0.1-0.3-0.2c0-0.1,0.1-0.2,0.2-0.3c0.8-0.4,2.6-0.8,4.1-0.8
	c1.8,0,3.2,0.5,4.2,1.4c1,1,1.5,2.3,1.5,3.9c0,3.3-2.2,5.3-5.9,5.3c-1.2,0-2.5-0.2-3.3-0.4c-0.6-0.2-0.8-0.4-0.8-0.5
	c0-0.1,0.1-0.2,0.3-0.2c0.2,0,0.3,0,0.4-0.2c0.1-0.1,0.1-0.2,0.1-0.8V28z M204.9,34.4c0,1.1,0.1,1.1,0.4,1.3c0.4,0.2,1,0.3,1.8,0.3
	c1.6,0,2.8-0.6,3.6-1.7c0.6-0.9,0.8-1.9,0.8-3.1c0-3-1.7-4.8-4.3-4.8c-0.8,0-1.6,0.2-2,0.4c-0.2,0.2-0.3,0.3-0.3,1V34.4z"/>
<path class="st0" d="M234.7,30.2h0.1c0.3,0,0.4,0.1,0.4,0.2s-0.1,0.2-0.5,0.2h-1.2c-0.9,0-1,0.1-1,0.8V35c0,0.9,0.1,0.9,1.9,0.9l1,0
	c1.2,0,1.6-0.2,2.2-0.9c0.1-0.2,0.2-0.2,0.3-0.2c0.1,0,0.2,0.1,0.2,0.2c0,0,0,0.1-0.1,0.2l-0.4,0.8l-0.1,0.2
	c-0.1,0.2-0.2,0.2-0.7,0.2h-6.1h-0.1c-0.3,0-0.4-0.1-0.4-0.2c0-0.2,0.1-0.2,0.4-0.2l0.2,0c0.4,0,0.5-0.2,0.5-1.1v-7.2
	c0-0.9-0.1-1-0.5-1.1l-0.2,0c-0.3,0-0.4-0.1-0.4-0.2c0-0.2,0.1-0.2,0.4-0.2h0.1h5.8c0.5,0,0.6,0,0.7,0.3l0.3,0.7
	c0.1,0.2,0.1,0.2,0.1,0.2c0,0.1-0.1,0.2-0.2,0.2c-0.1,0-0.2,0-0.4-0.3c-0.5-0.7-0.8-0.7-3.2-0.7c-1.2,0-1.3,0.1-1.3,1v2.8H234.7z"/>
<path class="st0" d="M263.1,35.1c0.5,0.6,0.7,0.8,1.2,0.8c0.3,0,0.4,0.1,0.4,0.2c0,0.1-0.1,0.2-0.4,0.2H263c-0.3,0-0.4-0.1-0.6-0.2
	l-4.2-4.8c-0.1-0.2-0.2-0.2-0.2-0.3c0-0.2,0.1-0.3,0.5-0.2c0.1,0,0.1,0,0.2,0c1.8,0,2.9-0.8,2.9-2.2c0-1.3-1-2.2-2.6-2.2
	c-0.7,0-1.3,0.2-1.6,0.4c-0.2,0.2-0.3,0.4-0.3,1.3v6.7c0,0.9,0.1,1,0.5,1.1l0.3,0c0.3,0,0.4,0.1,0.4,0.2c0,0.1-0.1,0.2-0.4,0.2h-0.1
	h-2.5h-0.1c-0.3,0-0.4-0.1-0.4-0.2c0-0.2,0.1-0.2,0.4-0.2l0.2,0c0.4,0,0.5-0.2,0.5-1.1v-6.7l0-0.4c0-0.4-0.1-0.5-0.4-0.5l-0.1,0
	c-0.2,0-0.3-0.1-0.3-0.2c0-0.1,0.2-0.3,0.7-0.4c1.1-0.4,2.1-0.6,3.3-0.6c2.4,0,3.9,1,3.9,2.6c0,1.5-1.4,2.6-3.3,2.7L263.1,35.1z"/>
<path class="st0" d="M97.1,47.3v-0.2c0-0.3-0.1-0.4-0.3-0.4c-0.2,0-0.2-0.1-0.2-0.1c0-0.1,0-0.1,0.2-0.2c0.6-0.3,1.9-0.6,3-0.6
	c1.4,0,2.4,0.4,3.1,1.1c0.7,0.7,1.1,1.7,1.1,2.8c0,2.4-1.6,3.9-4.3,3.9c-0.9,0-1.8-0.1-2.4-0.3c-0.4-0.1-0.6-0.3-0.6-0.4
	c0-0.1,0.1-0.2,0.2-0.2c0.2,0,0.2,0,0.3-0.1c0.1-0.1,0.1-0.1,0.1-0.6V47.3z M98.1,52.1c0,0.8,0,0.8,0.3,1c0.3,0.1,0.8,0.2,1.3,0.2
	c1.2,0,2.1-0.4,2.6-1.3c0.4-0.6,0.6-1.4,0.6-2.3c0-2.2-1.2-3.5-3.2-3.5c-0.6,0-1.2,0.1-1.4,0.3c-0.2,0.1-0.2,0.2-0.2,0.7V52.1z"/>
<path class="st0" d="M115.8,49h0.1c0.2,0,0.3,0.1,0.3,0.2c0,0.1-0.1,0.2-0.4,0.2h-0.9c-0.7,0-0.8,0-0.8,0.6v2.5
	c0,0.7,0.1,0.7,1.4,0.7l0.7,0c0.9,0,1.2-0.1,1.6-0.7c0.1-0.1,0.2-0.2,0.2-0.2c0.1,0,0.2,0.1,0.2,0.1c0,0,0,0.1,0,0.2l-0.3,0.6
	l-0.1,0.2c-0.1,0.1-0.2,0.1-0.5,0.1h-4.5h-0.1c-0.2,0-0.3,0-0.3-0.1c0-0.1,0.1-0.1,0.3-0.2l0.2,0c0.3,0,0.4-0.1,0.4-0.8v-5.3
	c0-0.7,0-0.8-0.4-0.8l-0.2,0c-0.2,0-0.3-0.1-0.3-0.2c0-0.1,0.1-0.2,0.3-0.2h0.1h4.3c0.4,0,0.4,0,0.5,0.2l0.2,0.5
	c0.1,0.1,0.1,0.1,0.1,0.2c0,0.1-0.1,0.1-0.2,0.1c-0.1,0-0.2,0-0.3-0.2c-0.4-0.5-0.6-0.5-2.3-0.5c-0.9,0-1,0.1-1,0.7v2H115.8z"/>
<path class="st0" d="M132.9,47.1c0-0.7,0-0.8-0.4-0.8l-0.1,0c-0.2,0-0.3-0.1-0.3-0.2c0-0.1,0.1-0.2,0.3-0.2h0.1h1.3h0.1
	c0.2,0,0.3,0,0.3,0.2c0,0.1,0,0.1-0.3,0.2l-0.1,0c-0.3,0-0.4,0.1-0.4,0.8v6.2v0.2c0,0.1-0.1,0.1-0.1,0.1h-0.2c-0.1,0-0.1,0-0.1-0.1
	c0-0.3-0.1-0.4-0.3-0.6l-0.2-0.3l-4.4-5.2v5.1c0,0.7,0,0.8,0.4,0.8l0.2,0c0.2,0,0.3,0,0.3,0.2c0,0.1-0.1,0.1-0.3,0.1h-0.1h-1.3H127
	c-0.2,0-0.3,0-0.3-0.1c0-0.1,0.1-0.1,0.3-0.2l0.2,0c0.3,0,0.4-0.1,0.4-0.8v-5.6c-0.3-0.3-0.4-0.4-0.6-0.5l-0.3-0.1
	c-0.1,0-0.2-0.1-0.2-0.1c0-0.1,0.1-0.1,0.2-0.1h1c0.2,0,0.3,0,0.4,0.2l4.8,5.7V47.1z"/>
<path class="st0" d="M146.5,52.4c0,0.7,0,0.8,0.4,0.8l0.2,0c0.2,0,0.3,0.1,0.3,0.2c0,0.1-0.1,0.1-0.3,0.1H147h-1.8H145
	c-0.2,0-0.3,0-0.3-0.1c0-0.1,0.1-0.1,0.3-0.2l0.2,0c0.2,0,0.3-0.1,0.3-0.2c0-0.1,0.1-0.2,0.1-0.6v-5.1l0-0.4c0-0.6-0.1-0.6-0.9-0.6
	c-1,0-1.3,0.1-1.7,0.6l-0.1,0.2c-0.1,0.1-0.1,0.1-0.2,0.1c-0.1,0-0.2-0.1-0.2-0.1c0,0,0-0.1,0.1-0.2l0.3-0.6
	c0.1-0.2,0.1-0.3,0.5-0.3h5.4h0.2c0.2,0,0.3,0.1,0.4,0.2l0.3,0.7c0,0.1,0.1,0.1,0.1,0.2c0,0.1-0.1,0.1-0.2,0.1c-0.1,0-0.1,0-0.2-0.1
	c-0.5-0.7-0.8-0.8-2-0.8c-0.7,0-0.8,0.1-0.8,0.7V52.4z"/>
<path class="st0" d="M157.4,52.5l-0.1,0.2c-0.1,0.2-0.1,0.2-0.1,0.3c0,0.1,0.1,0.2,0.3,0.2l0.2,0c0.2,0,0.2,0.1,0.2,0.2
	c0,0.1-0.1,0.1-0.2,0.1h-1.5c-0.1,0-0.2-0.1-0.2-0.1c0-0.1,0.1-0.1,0.2-0.2l0.2,0c0.2,0,0.2-0.1,0.3-0.2c0-0.1,0.1-0.1,0.2-0.4
	c0-0.1,0.1-0.1,0.1-0.2c0.1-0.1,0.1-0.2,0.1-0.2l2.3-6.1c0.1-0.2,0.1-0.3,0.3-0.3c0.1,0,0.2,0.1,0.3,0.3l2.4,6.2l0.1,0.3l0.1,0.1
	c0.1,0.4,0.2,0.4,0.5,0.5l0.1,0c0.1,0,0.2,0.1,0.2,0.2c0,0.1-0.1,0.1-0.3,0.1h-2c-0.2,0-0.3,0-0.3-0.2c0-0.1,0-0.1,0.4-0.2
	c0.2,0,0.3-0.1,0.3-0.2c0-0.1,0-0.2-0.1-0.3l-0.1-0.3l-0.3-0.9c-0.2-0.6-0.2-0.6-0.8-0.6h-1.5c-0.6,0-0.6,0-0.8,0.6L157.4,52.5z
	 M160.6,50.4l-1.2-3.2l-1.2,3.2H160.6z"/>
<path class="st0" d="M177,53.2l-0.1,0.1c-0.1,0.1-0.2,0.2-0.4,0.2H172h-0.1c-0.2,0-0.3,0-0.3-0.1c0-0.1,0.1-0.1,0.3-0.2l0.2,0
	c0.3,0,0.4-0.1,0.4-0.8v-5.3c0-0.7,0-0.8-0.4-0.8l-0.1,0c-0.2,0-0.3,0-0.3-0.1c0-0.1,0.1-0.2,0.3-0.2h0.1h1.8h0.1
	c0.2,0,0.3,0,0.3,0.2c0,0.1-0.1,0.1-0.3,0.1l-0.2,0c-0.3,0-0.4,0.1-0.4,0.8v5.2c0,0.9,0,0.9,0.8,0.9l0.8,0c1.1,0,1.5-0.1,1.9-0.7
	c0.2-0.2,0.2-0.3,0.3-0.3c0.1,0,0.2,0.1,0.2,0.1c0,0,0,0.1-0.1,0.2L177,53.2z"/>
<path class="st0" d="M200,52.1v0.1c0,0.3,0,0.3,0.3,0.3c0.1,0,0.2,0.1,0.2,0.1c0,0.1-0.1,0.2-0.3,0.3c-0.7,0.4-2,0.6-3,0.6
	c-1.3,0-2.4-0.4-3.1-1.1c-0.7-0.7-1-1.7-1-2.7c0-2.3,1.8-3.9,4.2-3.9c0.4,0,0.8,0,1.1,0.1l0.4,0.1c0.1,0,0.1,0,0.2,0
	c0.1,0,0.2,0,0.3-0.1c0.1-0.1,0.1-0.1,0.2-0.1c0.1,0,0.1,0,0.2,0.2l0.4,1c0,0.1,0.1,0.1,0.1,0.2c0,0.1-0.1,0.1-0.2,0.1
	c-0.1,0-0.2,0-0.2-0.1c-0.6-0.7-1.4-1-2.4-1c-1.9,0-3.1,1.5-3.1,3.6c0,2.1,1.2,3.4,3.1,3.4c0.6,0,1.2-0.1,1.6-0.4
	c0.3-0.2,0.3-0.2,0.3-0.8v-0.5l0-0.2c0-0.4-0.1-0.5-0.5-0.5h-0.2c-0.1,0-0.2-0.1-0.2-0.2c0-0.1,0.1-0.2,0.3-0.2h1.9
	c0.3,0,0.3,0,0.3,0.1c0,0.1-0.1,0.2-0.2,0.2c-0.5,0-0.6,0.1-0.6,0.6V52.1z"/>
<path class="st0" d="M215.4,52.6c0.4,0.5,0.5,0.6,0.9,0.6c0.2,0,0.3,0.1,0.3,0.2c0,0.1-0.1,0.1-0.3,0.1h-1c-0.2,0-0.3,0-0.4-0.2
	l-3.1-3.5c-0.1-0.1-0.1-0.2-0.1-0.2c0-0.1,0.1-0.2,0.4-0.2c0,0,0.1,0,0.1,0c1.3,0,2.1-0.6,2.1-1.6c0-1-0.7-1.6-1.9-1.6
	c-0.5,0-1,0.1-1.2,0.3c-0.2,0.1-0.2,0.3-0.2,1v4.9c0,0.7,0.1,0.8,0.4,0.8l0.2,0c0.2,0,0.3,0.1,0.3,0.2c0,0.1-0.1,0.1-0.3,0.1h-0.1
	h-1.8h-0.1c-0.2,0-0.3,0-0.3-0.1c0-0.1,0.1-0.1,0.3-0.2l0.2,0c0.3,0,0.4-0.1,0.4-0.8v-4.9l0-0.3c0-0.3-0.1-0.4-0.3-0.4l-0.1,0
	c-0.1,0-0.2-0.1-0.2-0.2c0-0.1,0.2-0.2,0.5-0.3c0.8-0.3,1.5-0.4,2.4-0.4c1.8,0,2.9,0.7,2.9,1.9c0,1.1-1,1.9-2.4,2L215.4,52.6z"/>
<path class="st0" d="M228.6,53.6c-2.5,0-4.2-1.5-4.2-3.9c0-2.4,1.6-3.9,4.2-3.9c2.6,0,4.2,1.5,4.2,3.9
	C232.8,52.1,231.2,53.6,228.6,53.6z M228.6,46.2c-1.9,0-3.1,1.4-3.1,3.6c0,2.1,1.2,3.5,3.2,3.5c1.9,0,3.2-1.4,3.2-3.6
	C231.8,47.6,230.5,46.2,228.6,46.2z"/>
<path class="st0" d="M248.1,51.1c0,0.9-0.1,1.3-0.6,1.7c-0.5,0.5-1.4,0.8-2.4,0.8c-1.1,0-1.9-0.3-2.4-0.8c-0.4-0.4-0.5-0.8-0.5-1.5
	v-4.2c0-0.7,0-0.8-0.4-0.8l-0.2,0c-0.2,0-0.3,0-0.3-0.1c0-0.1,0.1-0.2,0.3-0.2h0.1h1.7h0.1c0.2,0,0.3,0,0.3,0.2
	c0,0.1-0.1,0.1-0.3,0.1l-0.2,0c-0.3,0-0.4,0.1-0.4,0.8v4c0,0.9,0.1,1.2,0.4,1.6c0.4,0.4,1,0.7,1.8,0.7c0.9,0,1.7-0.4,2.1-0.9
	c0.2-0.3,0.2-0.6,0.2-1.4v-3.9c0-0.7,0-0.8-0.4-0.8l-0.1,0c-0.2,0-0.3,0-0.3-0.1c0-0.1,0.1-0.2,0.3-0.2h0.1h1.3h0.1
	c0.2,0,0.3,0,0.3,0.2c0,0.1-0.1,0.1-0.3,0.1l-0.2,0c-0.3,0-0.4,0.1-0.4,0.8V51.1z"/>
<path class="st0" d="M259.1,52.4c0,0.4,0,0.5,0.1,0.6c0,0.1,0.2,0.2,0.3,0.2l0.4,0c0.2,0,0.3,0.1,0.3,0.2c0,0.1-0.1,0.1-0.3,0.1
	h-0.1h-1.9h-0.1c-0.2,0-0.3,0-0.3-0.1c0-0.1,0.1-0.1,0.3-0.2l0.1,0c0.3,0,0.4-0.1,0.4-0.8v-5.1v-0.2c0-0.2-0.1-0.4-0.3-0.4l-0.1,0
	c-0.1,0-0.2-0.1-0.2-0.2c0-0.1,0.2-0.2,0.7-0.4c0.6-0.2,1.5-0.3,2.3-0.3c1.8,0,2.9,0.8,2.9,2.2c0,1.3-1,2.2-2.6,2.2
	c-0.7,0-1.3-0.2-1.3-0.4c0-0.1,0.1-0.2,0.2-0.2c0,0,0.1,0,0.1,0l0.3,0.1c0.2,0,0.4,0.1,0.6,0.1c1.1,0,1.8-0.7,1.8-1.8
	c0-1.2-0.7-1.9-2-1.9c-0.6,0-1.1,0.1-1.3,0.4c-0.1,0.1-0.2,0.2-0.2,0.8V52.4z"/>
<rect x="95.9" y="39.7" class="st1" width="171.1" height="0.9"/>
</svg>
