<?xml version="1.0" encoding="utf-8"?>
<!-- Generator: Adobe Illustrator 19.1.0, SVG Export Plug-In . SVG Version: 6.00 Build 0)  -->
<svg version="1.1" id="Layer_1" xmlns="http://www.w3.org/2000/svg" xmlns:xlink="http://www.w3.org/1999/xlink" x="0px" y="0px"
	 viewBox="0 0 135 100" style="enable-background:new 0 0 135 100;" xml:space="preserve">
<style type="text/css">
	.st0{fill:#001E61;}
	.st1{fill:#009BDE;}
	.st2{fill:none;stroke:#009BDE;stroke-width:0.6461;}
</style>
<g>
	<g>
		<path class="st0" d="M103.3,8.7c0,0-3.8,4.9-4.4,8.3c-0.3,2,0.1,5.1-0.3,7.9c-0.3,1.8-1.4,5-1.4,5s4.8-5.6,5.4-10.8
			C103.1,13.9,102.8,12.3,103.3,8.7z"/>
		<path class="st0" d="M93.6,29.7c0,0-9.7,12.7-21,12.6c-11.3-0.1-16.3-4-24.5-2.9c-8.8,1.2-17.5,7-20.4,14.2c0,0,9.2-9.1,21.4-9
			c12.2,0.1,12.1,3.1,21.7,2.9C80.6,47.4,90.6,37.2,93.6,29.7z"/>
		<path class="st1" d="M91.4,43.9c0.3-0.9-5.8,13.2-20.6,14.9c-12.1,1.4-16.4-3.1-16.4-3.1l2-3.9c0,0,8.3,4.4,17.3,2.3
			C86.7,51.1,91.4,43.9,91.4,43.9z"/>
	</g>
	<g>
		<path class="st0" d="M14.2,75.3c0.5,0.3,0.7,0.8,0.7,1.4c0,0.7-0.3,1.3-1,1.7c-0.5,0.3-1.2,0.5-2.1,0.5c-0.9,0-1.8-0.2-2.4-0.4
			c-0.2-0.1-0.3-0.2-0.3-0.3c0-0.1,0.1-0.1,0.2-0.1c0.3,0,0.3-0.1,0.3-0.4l0-0.3l0-4.3l0-0.3c0-0.3-0.1-0.4-0.3-0.4
			c-0.2,0-0.2-0.1-0.2-0.1c0-0.1,0.1-0.2,0.6-0.4c0.6-0.2,1.5-0.3,2.2-0.3c1.6,0,2.6,0.6,2.6,1.7c0,0.5-0.2,0.9-0.6,1.2
			c-0.3,0.2-0.6,0.3-1.2,0.4C13.5,75,13.8,75.1,14.2,75.3z M10.5,77.5c0,0.6,0,0.7,0.2,0.8c0.2,0.2,0.7,0.3,1.2,0.3
			c1.2,0,2-0.7,2-1.8c0-1-0.7-1.6-2.1-1.6h-0.4c-0.2,0-0.3-0.1-0.3-0.2c0-0.1,0.1-0.2,0.4-0.2h0.3c1.2,0,1.9-0.5,1.9-1.4
			c0-0.9-0.7-1.4-1.8-1.4c-0.5,0-0.8,0.1-1.1,0.2c-0.2,0.1-0.2,0.2-0.2,0.9L10.5,77.5z"/>
		<path class="st0" d="M30.7,78.9c-2.4,0-3.9-1.4-3.9-3.6c0-2.3,1.5-3.7,4-3.7c2.5,0,4,1.4,4,3.7C34.8,77.5,33.2,78.9,30.7,78.9z
			 M30.7,71.9c-1.8,0-3,1.3-3,3.4c0,2,1.2,3.3,3,3.3c1.8,0,3-1.3,3-3.4C33.8,73.2,32.6,71.9,30.7,71.9z"/>
		<path class="st0" d="M53,76.5c0,0.8-0.1,1.2-0.5,1.6c-0.5,0.5-1.3,0.8-2.3,0.8c-1,0-1.8-0.3-2.3-0.8c-0.3-0.4-0.5-0.8-0.5-1.4v-4
			c0-0.7,0-0.7-0.3-0.7l-0.1,0c-0.2,0-0.3,0-0.3-0.1c0-0.1,0.1-0.1,0.3-0.1H47h1.6h0.1c0.2,0,0.3,0,0.3,0.1c0,0.1-0.1,0.1-0.3,0.1
			l-0.1,0c-0.3,0-0.4,0.1-0.4,0.7v3.7c0,0.8,0.1,1.1,0.4,1.5c0.4,0.4,1,0.6,1.7,0.6c0.9,0,1.6-0.3,2-0.9c0.2-0.3,0.2-0.6,0.2-1.3
			v-3.6c0-0.7,0-0.7-0.3-0.7L52,72c-0.2,0-0.3,0-0.3-0.1c0-0.1,0.1-0.1,0.3-0.1h0.1h1.3h0.1c0.2,0,0.3,0,0.3,0.1
			c0,0.1-0.1,0.1-0.3,0.1l-0.2,0C53,72,53,72.1,53,72.7V76.5z"/>
		<path class="st0" d="M70.7,78.5l-0.1,0.1c-0.1,0.1-0.2,0.1-0.4,0.1H66h-0.1c-0.2,0-0.3,0-0.3-0.1c0-0.1,0.1-0.1,0.3-0.1l0.1,0
			c0.3,0,0.3-0.1,0.3-0.7v-5c0-0.7,0-0.7-0.3-0.7l-0.1,0c-0.2,0-0.3,0-0.3-0.1c0-0.1,0.1-0.1,0.3-0.1H66h1.7h0.1
			c0.2,0,0.3,0,0.3,0.1c0,0.1-0.1,0.1-0.3,0.1l-0.2,0c-0.3,0-0.3,0.1-0.3,0.7v4.9c0,0.9,0,0.9,0.8,0.9l0.7,0c1.1,0,1.5-0.1,1.8-0.6
			c0.1-0.2,0.2-0.2,0.3-0.2c0.1,0,0.2,0.1,0.2,0.1c0,0,0,0.1-0.1,0.2L70.7,78.5z"/>
		<path class="st0" d="M83.2,73v-0.2c0-0.3-0.1-0.3-0.3-0.4c-0.2,0-0.2-0.1-0.2-0.1c0-0.1,0-0.1,0.2-0.2c0.6-0.3,1.8-0.5,2.8-0.5
			c1.3,0,2.2,0.3,2.9,1c0.7,0.7,1,1.6,1,2.7c0,2.3-1.5,3.7-4.1,3.7c-0.9,0-1.7-0.1-2.3-0.3c-0.4-0.1-0.6-0.2-0.6-0.4
			c0-0.1,0.1-0.1,0.2-0.2c0.2,0,0.2,0,0.3-0.1c0.1-0.1,0.1-0.1,0.1-0.5V73z M84,77.4c0,0.7,0,0.8,0.3,0.9c0.2,0.1,0.7,0.2,1.2,0.2
			c1.1,0,2-0.4,2.5-1.2c0.4-0.6,0.6-1.3,0.6-2.1c0-2-1.1-3.3-3-3.3c-0.6,0-1.1,0.1-1.4,0.3C84,72.3,84,72.4,84,72.9V77.4z"/>
		<path class="st0" d="M104.6,74.6h0.1c0.2,0,0.3,0.1,0.3,0.2c0,0.1-0.1,0.2-0.3,0.2h-0.9c-0.6,0-0.7,0-0.7,0.6v2.4
			c0,0.6,0.1,0.7,1.3,0.6l0.7,0c0.9,0,1.1-0.1,1.5-0.6c0.1-0.1,0.2-0.2,0.2-0.2c0.1,0,0.2,0.1,0.2,0.1c0,0,0,0.1,0,0.1l-0.3,0.6
			l-0.1,0.1c-0.1,0.1-0.1,0.1-0.5,0.1h-4.2h-0.1c-0.2,0-0.3,0-0.3-0.1c0-0.1,0.1-0.1,0.3-0.1l0.1,0c0.3,0,0.3-0.1,0.3-0.7v-5
			c0-0.7,0-0.7-0.3-0.7l-0.2,0c-0.2,0-0.3-0.1-0.3-0.1c0-0.1,0.1-0.1,0.3-0.1h0.1h4c0.4,0,0.4,0,0.5,0.2l0.2,0.5
			c0.1,0.1,0.1,0.1,0.1,0.2c0,0.1-0.1,0.1-0.2,0.1c-0.1,0-0.1,0-0.3-0.2c-0.4-0.5-0.6-0.5-2.2-0.5c-0.8,0-0.9,0.1-0.9,0.7v1.9H104.6
			z"/>
		<path class="st0" d="M124.3,78c0.4,0.4,0.5,0.5,0.9,0.6c0.2,0,0.3,0.1,0.3,0.1c0,0.1-0.1,0.1-0.3,0.1h-1c-0.2,0-0.3,0-0.4-0.2
			l-2.9-3.3c-0.1-0.1-0.1-0.2-0.1-0.2c0-0.1,0.1-0.2,0.3-0.2c0,0,0.1,0,0.1,0c1.3,0,2-0.6,2-1.5c0-0.9-0.7-1.5-1.8-1.5
			c-0.5,0-0.9,0.1-1.1,0.3c-0.1,0.1-0.2,0.3-0.2,0.9v4.6c0,0.6,0.1,0.7,0.4,0.7l0.2,0c0.2,0,0.3,0.1,0.3,0.1c0,0.1-0.1,0.1-0.3,0.1
			h-0.1h-1.7h-0.1c-0.2,0-0.3,0-0.3-0.1c0-0.1,0.1-0.1,0.3-0.1l0.1,0c0.3,0,0.3-0.1,0.3-0.7v-4.7l0-0.3c0-0.3-0.1-0.3-0.2-0.4
			l-0.1,0c-0.1,0-0.2-0.1-0.2-0.1c0-0.1,0.1-0.2,0.5-0.3c0.8-0.3,1.5-0.4,2.3-0.4c1.7,0,2.7,0.7,2.7,1.8c0,1-0.9,1.8-2.3,1.9
			L124.3,78z"/>
		<path class="st0" d="M9.4,86.4v-0.1c0-0.2,0-0.3-0.2-0.3c-0.2,0-0.2,0-0.2-0.1c0,0,0-0.1,0.1-0.1c0.4-0.2,1.3-0.4,2.1-0.4
			c0.9,0,1.6,0.2,2.1,0.7c0.5,0.5,0.8,1.2,0.8,2c0,1.7-1.1,2.7-3,2.7c-0.6,0-1.3-0.1-1.7-0.2C9.2,90.4,9,90.3,9,90.3
			c0-0.1,0.1-0.1,0.2-0.1c0.1,0,0.2,0,0.2-0.1c0,0,0-0.1,0-0.4V86.4z M10,89.7c0,0.5,0,0.6,0.2,0.7c0.2,0.1,0.5,0.2,0.9,0.2
			c0.8,0,1.4-0.3,1.8-0.9c0.3-0.4,0.4-0.9,0.4-1.6c0-1.5-0.8-2.4-2.2-2.4c-0.4,0-0.8,0.1-1,0.2c-0.1,0.1-0.2,0.1-0.2,0.5V89.7z"/>
		<path class="st0" d="M22.3,87.5L22.3,87.5c0.2,0,0.3,0,0.3,0.1c0,0.1-0.1,0.1-0.2,0.1h-0.6c-0.5,0-0.5,0-0.5,0.4V90
			c0,0.5,0.1,0.5,1,0.5l0.5,0c0.6,0,0.8-0.1,1.1-0.5c0.1-0.1,0.1-0.1,0.2-0.1c0.1,0,0.1,0,0.1,0.1c0,0,0,0.1,0,0.1l-0.2,0.4
			l-0.1,0.1c-0.1,0.1-0.1,0.1-0.4,0.1h-3.1h-0.1c-0.1,0-0.2,0-0.2-0.1c0-0.1,0-0.1,0.2-0.1l0.1,0c0.2,0,0.3-0.1,0.3-0.5v-3.7
			c0-0.5,0-0.5-0.3-0.5l-0.1,0c-0.2,0-0.2,0-0.2-0.1c0-0.1,0.1-0.1,0.2-0.1h0.1h3c0.3,0,0.3,0,0.4,0.2l0.2,0.4c0,0.1,0,0.1,0,0.1
			c0,0.1,0,0.1-0.1,0.1c-0.1,0-0.1,0-0.2-0.1c-0.3-0.3-0.4-0.4-1.6-0.4c-0.6,0-0.7,0-0.7,0.5v1.4H22.3z"/>
		<path class="st0" d="M34.2,86.2c0-0.5,0-0.5-0.2-0.5l-0.1,0c-0.2,0-0.2,0-0.2-0.1c0-0.1,0.1-0.1,0.2-0.1h0.1h0.9h0.1
			c0.1,0,0.2,0,0.2,0.1c0,0.1,0,0.1-0.2,0.1l-0.1,0c-0.2,0-0.2,0.1-0.3,0.5v4.3v0.1c0,0.1,0,0.1-0.1,0.1h-0.2c-0.1,0-0.1,0-0.1-0.1
			c0-0.2-0.1-0.3-0.2-0.4L33.8,90l-3.1-3.6v3.5c0,0.5,0,0.5,0.2,0.5l0.1,0c0.2,0,0.2,0,0.2,0.1c0,0.1-0.1,0.1-0.2,0.1H31h-0.9h-0.1
			c-0.1,0-0.2,0-0.2-0.1c0-0.1,0-0.1,0.2-0.1l0.1,0c0.2,0,0.3-0.1,0.3-0.5V86c-0.2-0.2-0.3-0.3-0.4-0.3l-0.2,0c-0.1,0-0.1,0-0.1-0.1
			c0-0.1,0.1-0.1,0.2-0.1h0.7c0.2,0,0.2,0,0.3,0.1l3.3,3.9V86.2z"/>
		<path class="st0" d="M43.6,89.9c0,0.5,0,0.5,0.3,0.5l0.1,0c0.1,0,0.2,0,0.2,0.1c0,0.1-0.1,0.1-0.2,0.1h-0.1h-1.3h-0.1
			c-0.1,0-0.2,0-0.2-0.1c0-0.1,0-0.1,0.2-0.1l0.2,0c0.1,0,0.2-0.1,0.2-0.1c0-0.1,0-0.1,0-0.4v-3.6l0-0.2c0-0.4-0.1-0.4-0.6-0.4
			c-0.7,0-0.9,0.1-1.2,0.4l-0.1,0.1c0,0.1-0.1,0.1-0.1,0.1c-0.1,0-0.1,0-0.1-0.1c0,0,0-0.1,0-0.1l0.2-0.4c0.1-0.2,0.1-0.2,0.3-0.2
			h3.7h0.1c0.1,0,0.2,0,0.2,0.2l0.2,0.5c0,0.1,0,0.1,0,0.1c0,0.1-0.1,0.1-0.1,0.1c-0.1,0-0.1,0-0.2-0.1c-0.3-0.5-0.5-0.5-1.4-0.5
			c-0.5,0-0.5,0-0.5,0.5V89.9z"/>
		<path class="st0" d="M51.2,90l0,0.1c0,0.1-0.1,0.2-0.1,0.2c0,0.1,0.1,0.1,0.2,0.1l0.1,0c0.1,0,0.1,0,0.1,0.1c0,0.1,0,0.1-0.2,0.1
			h-1c-0.1,0-0.2,0-0.2-0.1c0-0.1,0-0.1,0.2-0.1l0.1,0c0.1,0,0.2,0,0.2-0.1c0,0,0.1-0.1,0.1-0.3c0,0,0-0.1,0.1-0.1
			c0-0.1,0-0.1,0.1-0.1l1.6-4.2c0.1-0.2,0.1-0.2,0.2-0.2c0.1,0,0.1,0,0.2,0.2l1.6,4.3l0.1,0.2l0,0.1c0.1,0.2,0.2,0.3,0.4,0.3l0.1,0
			c0.1,0,0.1,0,0.1,0.1c0,0.1-0.1,0.1-0.2,0.1h-1.4c-0.1,0-0.2,0-0.2-0.1c0-0.1,0-0.1,0.3-0.1c0.2,0,0.2-0.1,0.2-0.1
			c0-0.1,0-0.1-0.1-0.2l-0.1-0.2l-0.2-0.6c-0.2-0.4-0.2-0.4-0.6-0.4h-1c-0.4,0-0.4,0-0.6,0.4L51.2,90z M53.4,88.5l-0.9-2.2l-0.8,2.2
			H53.4z"/>
		<path class="st0" d="M64.7,90.4l0,0.1c0,0.1-0.1,0.1-0.3,0.1h-3.1h-0.1c-0.1,0-0.2,0-0.2-0.1c0-0.1,0-0.1,0.2-0.1l0.1,0
			c0.2,0,0.3-0.1,0.3-0.5v-3.7c0-0.5,0-0.5-0.3-0.5l-0.1,0c-0.2,0-0.2,0-0.2-0.1c0-0.1,0.1-0.1,0.2-0.1h0.1h1.2h0.1
			c0.1,0,0.2,0,0.2,0.1c0,0.1,0,0.1-0.2,0.1l-0.1,0c-0.2,0-0.2,0.1-0.2,0.5v3.6c0,0.6,0,0.6,0.6,0.6l0.5,0c0.8,0,1.1-0.1,1.3-0.5
			c0.1-0.1,0.1-0.2,0.2-0.2c0.1,0,0.1,0,0.1,0.1c0,0,0,0.1,0,0.1L64.7,90.4z"/>
		<path class="st0" d="M80.7,89.7L80.7,89.7c0,0.3,0,0.3,0.2,0.3c0.1,0,0.1,0,0.1,0.1c0,0.1-0.1,0.1-0.2,0.2
			c-0.5,0.3-1.4,0.4-2.1,0.4c-0.9,0-1.7-0.3-2.1-0.8c-0.5-0.5-0.7-1.2-0.7-1.9c0-1.6,1.2-2.7,2.9-2.7c0.3,0,0.5,0,0.7,0.1l0.3,0.1
			c0,0,0.1,0,0.1,0c0.1,0,0.1,0,0.2-0.1c0.1-0.1,0.1-0.1,0.1-0.1c0.1,0,0.1,0,0.1,0.1l0.3,0.7c0,0.1,0,0.1,0,0.1
			c0,0.1-0.1,0.1-0.1,0.1c-0.1,0-0.1,0-0.2-0.1c-0.4-0.5-1-0.7-1.6-0.7c-1.3,0-2.2,1-2.2,2.5c0,1.4,0.9,2.4,2.2,2.4
			c0.4,0,0.9-0.1,1.1-0.3c0.2-0.1,0.2-0.1,0.2-0.6v-0.4l0-0.2c0-0.3,0-0.3-0.3-0.3h-0.1c-0.1,0-0.2,0-0.2-0.1c0-0.1,0.1-0.1,0.2-0.1
			H81c0.2,0,0.2,0,0.2,0.1c0,0.1,0,0.1-0.2,0.1c-0.4,0-0.4,0.1-0.4,0.4V89.7z"/>
		<path class="st0" d="M91.3,90c0.3,0.3,0.4,0.4,0.6,0.4c0.2,0,0.2,0,0.2,0.1c0,0.1-0.1,0.1-0.2,0.1h-0.7c-0.1,0-0.2,0-0.3-0.1
			l-2.1-2.4C88.8,88,88.8,88,88.8,88c0-0.1,0.1-0.1,0.3-0.1c0,0,0.1,0,0.1,0c0.9,0,1.5-0.4,1.5-1.1c0-0.7-0.5-1.1-1.3-1.1
			c-0.4,0-0.7,0.1-0.8,0.2c-0.1,0.1-0.1,0.2-0.1,0.7v3.4c0,0.5,0,0.5,0.3,0.5l0.1,0c0.1,0,0.2,0,0.2,0.1c0,0.1-0.1,0.1-0.2,0.1h-0.1
			h-1.3h-0.1c-0.1,0-0.2,0-0.2-0.1c0-0.1,0-0.1,0.2-0.1l0.1,0c0.2,0,0.3-0.1,0.3-0.5v-3.4l0-0.2c0-0.2,0-0.3-0.2-0.3l-0.1,0
			c-0.1,0-0.1,0-0.1-0.1c0-0.1,0.1-0.1,0.3-0.2c0.6-0.2,1.1-0.3,1.7-0.3c1.2,0,2,0.5,2,1.3c0,0.8-0.7,1.3-1.7,1.4L91.3,90z"/>
		<path class="st0" d="M100.4,90.7c-1.8,0-2.9-1.1-2.9-2.7c0-1.7,1.1-2.7,2.9-2.7c1.8,0,2.9,1.1,2.9,2.7
			C103.4,89.7,102.2,90.7,100.4,90.7z M100.4,85.6c-1.3,0-2.2,1-2.2,2.5c0,1.5,0.9,2.4,2.2,2.4c1.3,0,2.2-1,2.2-2.5
			C102.7,86.6,101.8,85.6,100.4,85.6z"/>
		<path class="st0" d="M113.9,89c0,0.6-0.1,0.9-0.4,1.2c-0.4,0.4-1,0.6-1.7,0.6c-0.7,0-1.3-0.2-1.7-0.6c-0.3-0.3-0.4-0.6-0.4-1.1
			v-2.9c0-0.5,0-0.5-0.3-0.5l-0.1,0c-0.2,0-0.2,0-0.2-0.1c0-0.1,0.1-0.1,0.2-0.1h0.1h1.2h0.1c0.1,0,0.2,0,0.2,0.1
			c0,0.1,0,0.1-0.2,0.1l-0.1,0c-0.2,0-0.3,0.1-0.3,0.5v2.7c0,0.6,0.1,0.8,0.3,1.1c0.3,0.3,0.7,0.5,1.3,0.5c0.7,0,1.2-0.2,1.4-0.7
			c0.1-0.2,0.2-0.4,0.2-1v-2.7c0-0.5,0-0.5-0.3-0.5l-0.1,0c-0.2,0-0.2,0-0.2-0.1c0-0.1,0.1-0.1,0.2-0.1h0.1h0.9h0.1
			c0.1,0,0.2,0,0.2,0.1c0,0.1,0,0.1-0.2,0.1l-0.1,0c-0.2,0-0.2,0.1-0.2,0.5V89z"/>
		<path class="st0" d="M121.5,89.9c0,0.3,0,0.4,0,0.4c0,0.1,0.1,0.1,0.2,0.1l0.2,0c0.1,0,0.2,0,0.2,0.1c0,0.1-0.1,0.1-0.2,0.1H122
			h-1.3h-0.1c-0.1,0-0.2,0-0.2-0.1c0-0.1,0-0.1,0.2-0.1l0.1,0c0.2,0,0.2-0.1,0.2-0.5v-3.5v-0.1c0-0.2,0-0.2-0.2-0.3l-0.1,0
			c-0.1,0-0.1-0.1-0.1-0.1c0-0.1,0.1-0.2,0.5-0.3c0.4-0.1,1-0.2,1.6-0.2c1.3,0,2,0.6,2,1.5c0,0.9-0.7,1.5-1.8,1.5
			c-0.5,0-0.9-0.1-0.9-0.3c0-0.1,0.1-0.1,0.1-0.1c0,0,0.1,0,0.1,0l0.2,0c0.1,0,0.3,0,0.4,0c0.8,0,1.2-0.5,1.2-1.2
			c0-0.8-0.5-1.3-1.4-1.3c-0.4,0-0.8,0.1-0.9,0.3c-0.1,0.1-0.1,0.2-0.1,0.6V89.9z"/>
	</g>
	<line class="st2" x1="8.5" y1="81.4" x2="127" y2="81.4"/>
</g>
</svg>
